<?xml version="1.0" encoding="UTF-8" standalone="no"?>
<!-- Created with Inkscape (http://www.inkscape.org/) -->

<svg
   xmlns:dc="http://purl.org/dc/elements/1.1/"
   xmlns:cc="http://creativecommons.org/ns#"
   xmlns:rdf="http://www.w3.org/1999/02/22-rdf-syntax-ns#"
   xmlns:svg="http://www.w3.org/2000/svg"
   xmlns="http://www.w3.org/2000/svg"
   xmlns:sodipodi="http://sodipodi.sourceforge.net/DTD/sodipodi-0.dtd"
   xmlns:inkscape="http://www.inkscape.org/namespaces/inkscape"
   width="210mm"
   height="297mm"
   viewBox="0 0 210 297"
   version="1.1"
   id="svg8"
   inkscape:version="0.92.4 (unknown)"
   sodipodi:docname="layout.svg">
  <defs
     id="defs2">
    <clipPath
       id="_clipPath_YQXZfDyPH8PDg72bLQM3P9CWVeOJZUa0">
      <rect
         id="rect5268"
         height="33.863"
         width="176.515" />
    </clipPath>
  </defs>
  <sodipodi:namedview
     id="base"
     pagecolor="#ffffff"
     bordercolor="#666666"
     borderopacity="1.0"
     inkscape:pageopacity="0.0"
     inkscape:pageshadow="2"
     inkscape:zoom="0.70710678"
     inkscape:cx="-123.04538"
     inkscape:cy="667.26162"
     inkscape:document-units="mm"
     inkscape:current-layer="layer1"
     showgrid="false"
     showguides="true"
     inkscape:guide-bbox="true"
     inkscape:window-width="1280"
     inkscape:window-height="751"
     inkscape:window-x="0"
     inkscape:window-y="0"
     inkscape:window-maximized="1"
     guidetolerance="20"
     inkscape:snap-perpendicular="false"
     inkscape:snap-tangential="false"
     inkscape:snap-global="false"
     inkscape:snap-to-guides="true"
     inkscape:snap-bbox="false"
     inkscape:snap-nodes="true"
     inkscape:snap-grids="false"
     inkscape:object-nodes="false"
     inkscape:snap-smooth-nodes="false"
     gridtolerance="10"
     inkscape:snap-midpoints="true">
    <sodipodi:guide
       position="20,274.48581"
       orientation="1,0"
       id="guide10"
       inkscape:locked="false"
       inkscape:label=""
       inkscape:color="rgb(0,0,255)" />
    <sodipodi:guide
       position="80,288.38382"
       orientation="1,0"
       id="guide12584"
       inkscape:locked="false"
       inkscape:label=""
       inkscape:color="rgb(0,0,255)" />
    <inkscape:grid
       type="xygrid"
       id="grid12586" />
    <sodipodi:guide
       position="46.113094,283.29316"
       orientation="0,1"
       id="guide13898"
       inkscape:locked="false" />
    <sodipodi:guide
       position="50.45982,270.25298"
       orientation="0,1"
       id="guide13900"
       inkscape:locked="false" />
    <sodipodi:guide
       position="38.072543,182.03728"
       orientation="0,1"
       id="guide14463"
       inkscape:locked="false" />
    <sodipodi:guide
       position="42.843304,175.30209"
       orientation="0,1"
       id="guide14465"
       inkscape:locked="false" />
  </sodipodi:namedview>
  <metadata
     id="metadata5">
    <rdf:RDF>
      <cc:Work
         rdf:about="">
        <dc:format>image/svg+xml</dc:format>
        <dc:type
           rdf:resource="http://purl.org/dc/dcmitype/StillImage" />
        <dc:title></dc:title>
      </cc:Work>
    </rdf:RDF>
  </metadata>
  <g
     inkscape:label="Layer 1"
     inkscape:groupmode="layer"
     id="layer1">
    <rect
       style="opacity:1;fill:#010101;fill-opacity:1;stroke:none;stroke-width:0.89409411;stroke-linejoin:miter;stroke-miterlimit:4;stroke-dasharray:none;stroke-opacity:1"
       id="rect12592"
       width="193.52382"
       height="200.70535"
       x="3.3839638"
       y="-30.994055" />
    <g
       id="g176"
       transform="matrix(0.21501056,0,0,0.21501056,115.98851,25.652861)">
	<path
   inkscape:connector-curvature="0"
   id="XMLID_4_"
   d="M 150.69807,0 H 14.82318 c -0.5659,0 -1.1328,0 -1.69769,0.0033 -0.47751,0.0034 -0.95391,0.0087 -1.43031,0.0217 -1.039,0.0281 -2.0869,0.0894 -3.1129,0.2738 -1.0424,0.1876 -2.0124,0.4936 -2.9587,0.9754 -0.9303,0.4731 -1.782,1.0919 -2.52009,1.8303 -0.73841,0.7384 -1.35721,1.5887 -1.83021,2.52 -0.4819,0.9463 -0.7881,1.9166 -0.9744,2.9598 -0.18539,1.0263 -0.2471,2.074 -0.2751,3.1119 -0.0128,0.4764 -0.01829,0.9528 -0.0214,1.4291 -0.0033,0.5661 -0.0022,1.1318 -0.0022,1.6989 V 91.142 c 0,0.5671 -0.0011,1.13181 0.0022,1.69901 0.00311,0.4763 0.0086,0.9527 0.0214,1.4291 0.028,1.03699 0.08971,2.08469 0.2751,3.11069 0.1863,1.0436 0.4925,2.0135 0.9744,2.9599 0.473,0.9313 1.0918,1.7827 1.83021,2.52 0.73809,0.7396 1.58979,1.3583 2.52009,1.8302 0.9463,0.4831 1.9163,0.7892 2.9587,0.9767 1.026,0.1832 2.0739,0.2456 3.1129,0.2737 0.4764,0.0108 0.9528,0.0172 1.43031,0.0194 0.56489,0.004 1.13179,0.004 1.69769,0.004 h 135.87489 c 0.5649,0 1.13181,0 1.69659,-0.004 0.47641,-0.002 0.95282,-0.009 1.4314,-0.0194 1.0368,-0.0281 2.0845,-0.0905 3.11301,-0.2737 1.041,-0.1875 2.0112,-0.4936 2.9576,-0.9767 0.9313,-0.4719 1.7805,-1.0906 2.52011,-1.8302 0.7372,-0.7373 1.35599,-1.5887 1.8302,-2.52 0.48299,-0.9464 0.78889,-1.9163 0.97429,-2.9599 0.1855,-1.026 0.2457,-2.0737 0.2738,-3.11069 0.013,-0.4764 0.0194,-0.9528 0.0216,-1.4291 0.004,-0.5672 0.004,-1.1319 0.004,-1.69901 V 14.8242 c 0,-0.5671 0,-1.1328 -0.004,-1.6989 -0.002,-0.4763 -0.009,-0.9527 -0.0216,-1.4291 -0.0281,-1.0379 -0.0883,-2.0856 -0.2738,-3.1119 -0.18539,-1.0432 -0.4913,-2.0135 -0.97429,-2.9598 -0.47421,-0.9313 -1.093,-1.7816 -1.8302,-2.52 -0.73961,-0.7384 -1.58881,-1.3572 -2.52011,-1.8303 -0.9464,-0.4818 -1.9166,-0.7878 -2.9576,-0.9754 -1.0285,-0.1844 -2.0762,-0.2457 -3.11301,-0.2738 -0.47858,-0.013 -0.95499,-0.0183 -1.4314,-0.0217 C 151.82988,0 151.26297,0 150.69807,0 Z" />

	<path
   style="fill:#ffffff"
   inkscape:connector-curvature="0"
   id="XMLID_3_"
   d="m 150.69807,3.532 1.67149,0.0032 c 0.4528,0.0032 0.90561,0.0081 1.36092,0.0205 0.79201,0.0214 1.71849,0.0643 2.58209,0.2191 0.7507,0.1352 1.38029,0.3408 1.9845,0.6484 0.5965,0.3031 1.14301,0.7003 1.62019,1.1768 0.479,0.4797 0.87671,1.0271 1.18381,1.6302 0.30589,0.5995 0.51019,1.2261 0.64459,1.9823 0.1544,0.8542 0.1971,1.7832 0.21881,2.5801 0.0122,0.4498 0.0182,0.8996 0.0204,1.3601 0.004,0.5569 0.004,1.1135 0.004,1.6715 V 91.142 c 0,0.558 9e-5,1.1136 -0.004,1.6824 -0.002,0.4497 -0.008,0.8995 -0.0204,1.3501 -0.0216,0.7957 -0.0643,1.7242 -0.2206,2.5885 -0.13251,0.7458 -0.3367,1.3725 -0.64429,1.975 -0.30621,0.6016 -0.70331,1.1484 -1.18022,1.6251 -0.47989,0.48 -1.0246,0.876 -1.62819,1.1819 -0.5997,0.3061 -1.22821,0.51151 -1.97151,0.6453 -0.88109,0.157 -1.84639,0.2002 -2.57339,0.2199 -0.4574,0.0103 -0.9126,0.0165 -1.37889,0.0187 -0.55571,0.004 -1.1134,0.004 -1.6692,0.004 h -135.875 c -0.0074,0 -0.0146,0 -0.0221,0 -0.5494,0 -1.0999,0 -1.6593,-0.004 -0.4561,-0.002 -0.9112,-0.008 -1.3512,-0.0182 -0.7436,-0.0201 -1.7095,-0.0632 -2.5834,-0.2193 -0.74969,-0.1348 -1.3782,-0.3402 -1.9858,-0.6503 -0.59789,-0.3032 -1.1422,-0.6988 -1.6223,-1.1797 C 5.12268,99.8857 4.72678,99.3406 4.42068,98.7381 4.11428,98.1362 3.90928,97.5076 3.77449,96.7529 3.61868,95.8903 3.57588,94.9655 3.55449,94.1752 3.54228,93.7227 3.53718,93.2703 3.53428,92.8205 l -0.0022,-1.3279 10e-5,-0.3506 V 14.8242 l -10e-5,-0.3506 0.0021,-1.3251 c 0.003,-0.4525 0.0081,-0.9049 0.02031,-1.357 C 3.57588,11.0004 3.61868,10.0752 3.77578,9.2054 3.90938,8.4575 4.11428,7.8289 4.42228,7.224 4.72598,6.6261 5.12258,6.0803 5.60149,5.6015 6.07849,5.1243 6.62458,4.7276 7.22628,4.4216 7.82738,4.1155 8.45708,3.91 9.20678,3.7751 c 0.8638,-0.1552 1.7909,-0.198 2.5849,-0.2195 0.4526,-0.0123 0.9052,-0.0172 1.3544,-0.0203 l 1.6771,-0.0033 h 135.87489" />

	<g
   id="g174">
		<g
   id="g164">
			<path
   inkscape:connector-curvature="0"
   d="m 45.1862,35.64053 c 1.41724,-1.77266 2.37897,-4.15282 2.12532,-6.58506 -2.07464,0.10316 -4.60634,1.36871 -6.07207,3.14276 -1.31607,1.5192 -2.4809,3.99902 -2.17723,6.3293 2.32889,0.20201 4.65563,-1.16408 6.12398,-2.887"
   id="path160" />

			<path
   inkscape:connector-curvature="0"
   d="m 47.28506,38.98252 c -3.38211,-0.20146 -6.25773,1.91951 -7.87286,1.91951 -1.61602,0 -4.08931,-1.81799 -6.76438,-1.76899 -3.48177,0.05114 -6.71245,2.01976 -8.4793,5.15079 -3.63411,6.2636 -0.95904,15.55471 2.57494,20.65606 1.71618,2.5238 3.78447,5.30269 6.50976,5.20287 2.57494,-0.10104 3.58421,-1.66732 6.71416,-1.66732 3.12765,0 4.03679,1.66732 6.76252,1.61681 2.82665,-0.05054 4.59381,-2.52506 6.30997,-5.05132 1.96878,-2.877 2.77473,-5.65498 2.82542,-5.80748 -0.0507,-0.05051 -5.45058,-2.12204 -5.50065,-8.33358 -0.05098,-5.20101 4.23951,-7.6749 4.44144,-7.82832 C 52.3832,39.4881 48.5975,39.08404 47.28506,38.98252"
   id="path162" />

		</g>

		<g
   id="g172">
			<path
   inkscape:connector-curvature="0"
   d="m 76.73385,31.94381 c 7.35096,0 12.4697,5.06708 12.4697,12.44437 0,7.40363 -5.22407,12.49704 -12.65403,12.49704 H 68.4106 V 69.8284 H 62.53023 V 31.9438 H 76.73385 Z M 68.41059,51.9493 h 6.74732 c 5.11975,0 8.0336,-2.75636 8.0336,-7.53479 0,-4.77792 -2.91385,-7.50845 -8.00727,-7.50845 h -6.77365 z"
   id="path166" />

			<path
   inkscape:connector-curvature="0"
   d="m 90.73997,61.97864 c 0,-4.8311 3.70182,-7.79761 10.26583,-8.16526 l 7.56061,-0.44614 v -2.12639 c 0,-3.07185 -2.07423,-4.90959 -5.53905,-4.90959 -3.28251,0 -5.33041,1.57492 -5.82871,4.04313 h -5.35574 c 0.31499,-4.98859 4.56777,-8.66407 11.3941,-8.66407 6.69466,0 10.97377,3.54432 10.97377,9.08388 v 19.03421 h -5.43472 v -4.54194 h -0.13065 c -1.60125,3.07185 -5.09341,5.01441 -8.71623,5.01441 -5.4084,0 -9.18921,-3.3605 -9.18921,-8.32224 z m 17.82644,-2.49404 v -2.17905 l -6.8,0.41981 c -3.38683,0.23649 -5.30306,1.73291 -5.30306,4.09579 0,2.41504 1.99523,3.99046 5.04075,3.99046 3.96413,0 7.06231,-2.73053 7.06231,-6.32701 z"
   id="path168" />

			<path
   inkscape:connector-curvature="0"
   d="m 119.34167,79.9889 v -4.5946 c 0.4193,0.10483 1.36425,0.10483 1.83723,0.10483 2.6252,0 4.04313,-1.10245 4.90908,-3.9378 0,-0.05267 0.49931,-1.68025 0.49931,-1.70658 l -9.97616,-27.64562 h 6.14268 l 6.98432,22.47371 h 0.10432 l 6.98433,-22.47371 h 5.9857 l -10.34483,29.06304 c -2.36186,6.69517 -5.0924,8.84789 -10.81577,8.84789 -0.47297,0 -1.8909,-0.05267 -2.31021,-0.13116 z"
   id="path170" />

		</g>

	</g>

</g>
    <g
       id="g178"
       transform="matrix(0.26458333,0,0,0.26458333,106.6149,28.981758)">
</g>
    <g
       id="g180"
       transform="matrix(0.26458333,0,0,0.26458333,106.6149,28.981758)">
</g>
    <g
       id="g182"
       transform="matrix(0.26458333,0,0,0.26458333,106.6149,28.981758)">
</g>
    <g
       id="g184"
       transform="matrix(0.26458333,0,0,0.26458333,106.6149,28.981758)">
</g>
    <g
       id="g186"
       transform="matrix(0.26458333,0,0,0.26458333,106.6149,28.981758)">
</g>
    <g
       id="g188"
       transform="matrix(0.26458333,0,0,0.26458333,106.6149,28.981758)">
</g>
    <path
       style="fill:#ffffff;stroke-width:0.12620234"
       inkscape:connector-curvature="0"
       d="m 168.68003,13.706938 0.21094,4.01e-4 c 0.0571,4.05e-4 0.11429,9.23e-4 0.17175,0.0024 0.0999,0.0029 0.21688,0.0081 0.32587,0.02767 0.0947,0.01708 0.1742,0.04303 0.25045,0.08183 0.0753,0.03825 0.14425,0.08838 0.20447,0.148519 0.0605,0.06054 0.11064,0.12962 0.1494,0.205733 0.0386,0.07566 0.0644,0.154734 0.0814,0.250169 0.0195,0.107804 0.0249,0.225046 0.0276,0.325614 0.002,0.05677 0.002,0.113531 0.003,0.171647 5.1e-4,0.07029 5.1e-4,0.14053 5.1e-4,0.210947 v 9.631467 c 0,0.07042 1e-5,0.140539 -5.1e-4,0.212325 -2.5e-4,0.05675 -9.3e-4,0.113519 -0.003,0.170385 -0.003,0.100419 -0.008,0.2176 -0.0279,0.326677 -0.0167,0.09412 -0.0425,0.173213 -0.0813,0.249249 -0.0386,0.07593 -0.0888,0.144927 -0.14895,0.205089 -0.0606,0.06058 -0.1293,0.110556 -0.20548,0.149158 -0.0757,0.03864 -0.155,0.06456 -0.24881,0.08144 -0.11119,0.0198 -0.23302,0.02528 -0.32476,0.02776 -0.0577,0.0014 -0.11518,0.0019 -0.17402,0.0024 -0.0701,4.62e-4 -0.14052,4.62e-4 -0.21066,4.62e-4 h -17.14774 c -9.2e-4,0 -0.002,0 -0.003,0 -0.0693,0 -0.13881,0 -0.20941,-4.62e-4 -0.0576,-2.52e-4 -0.11499,-9.23e-4 -0.17052,-0.0024 -0.0938,-0.0024 -0.21574,-0.008 -0.32603,-0.02766 -0.0946,-0.01698 -0.17393,-0.04293 -0.25061,-0.08205 -0.0755,-0.03825 -0.14415,-0.08819 -0.20474,-0.148881 -0.0601,-0.06004 -0.11009,-0.128825 -0.14872,-0.204866 -0.0387,-0.07596 -0.0645,-0.155292 -0.0815,-0.250537 -0.0197,-0.108862 -0.0251,-0.225571 -0.0278,-0.325308 -0.001,-0.05711 -0.002,-0.1142 -0.002,-0.170967 l -3.2e-4,-0.167592 1e-5,-0.04427 V 15.13181 l -1e-5,-0.04427 2.7e-4,-0.167231 c 3.8e-4,-0.0571 9.2e-4,-0.1142 0.003,-0.171257 0.003,-0.09984 0.008,-0.216599 0.0279,-0.326372 0.0169,-0.09439 0.0427,-0.173713 0.0816,-0.250054 0.0383,-0.07546 0.0884,-0.144341 0.14882,-0.204765 0.0602,-0.06022 0.12911,-0.110289 0.20505,-0.148906 0.0759,-0.03864 0.15533,-0.06456 0.24994,-0.08159 0.10902,-0.0196 0.22602,-0.02499 0.32622,-0.02771 0.0571,-0.0014 0.11424,-0.0024 0.17093,-0.0024 l 0.21165,-4.14e-4 h 17.14773"
       id="XMLID_3_-0" />
    <g
       id="g14266"
       transform="translate(0,36.512517)">
      <path
         sodipodi:nodetypes="ccccccccccsscccccccccscscccccccccccccccccccccccc"
         style="fill:#ffffff;stroke-width:0.12620234"
         inkscape:connector-curvature="0"
         d="m 78.575049,-3.1391966 0.210946,4.01e-4 c 0.05715,4.05e-4 0.11429,9.23e-4 0.171751,0.0024 0.09995,0.0029 0.216878,0.0081 0.325867,0.02767 0.09474,0.01708 0.174195,0.04303 0.250448,0.08183 0.07528,0.03825 0.14425,0.08838 0.204472,0.148519 0.06045,0.06054 0.110643,0.12962 0.149399,0.205733 0.0386,0.07566 0.06438,0.154734 0.08135,0.250169 0.01948,0.107804 0.02488,0.225046 0.02761,0.325614 0.0015,0.05677 0.0023,0.113531 0.0026,0.171647 C 80,-1.8549236 80,-1.7846836 80,-1.7142666 v 9.631467 c 0,0.07042 1.1e-5,0.140539 -5.08e-4,0.212325 -2.51e-4,0.05675 -9.28e-4,0.113519 -0.0026,0.170385 -0.0027,0.100419 -0.0081,0.2176 -0.02785,0.326677 -0.01672,0.09412 -0.04248,0.173213 -0.08131,0.249249 -0.03865,0.07593 -0.08876,0.144927 -0.148946,0.205089 -0.06056,0.06058 -0.129307,0.110556 -0.205481,0.149158 -0.07568,0.03864 -0.155004,0.06456 -0.248809,0.08144 -0.111197,0.0198 -0.23302,0.02528 -0.324768,0.02776 -0.05772,0.0014 -0.115173,0.0019 -0.17402,0.0024 -0.07013,4.62e-4 -0.140513,4.62e-4 -0.210657,4.62e-4 h -57.152946 -0.0028 c -0.06933,0 -0.13881,0 -0.209408,-4.62e-4 -0.05756,-2.52e-4 -0.114995,-9.23e-4 -0.170524,-0.0024 -0.09384,-0.0024 -0.215743,-0.008 -0.326031,-0.02766 -0.09461,-0.01698 -0.173931,-0.04293 -0.250612,-0.08205 -0.07545,-0.03825 -0.144148,-0.08819 -0.204738,-0.148881 -0.06012,-0.06004 -0.110087,-0.128825 -0.148717,-0.204866 -0.03867,-0.07596 -0.06454,-0.155292 -0.08155,-0.250537 -0.01967,-0.108862 -0.02506,-0.225571 -0.02777,-0.325308 -0.0015,-0.05711 -0.0022,-0.1142 -0.0025,-0.170967 l -3.2e-4,-0.167592 1.2e-5,-0.04427 v -9.631477 l -1.2e-5,-0.04427 2.65e-4,-0.167231 c 3.79e-4,-0.0571 9.28e-4,-0.1142 0.0026,-0.171257 0.0027,-0.09984 0.0081,-0.216599 0.02792,-0.326372 0.01686,-0.09439 0.04272,-0.173713 0.08159,-0.250054 0.03833,-0.07546 0.08838,-0.144341 0.148819,-0.204765 0.06019,-0.06022 0.129116,-0.110289 0.205052,-0.148906 0.07586,-0.03864 0.15533,-0.06456 0.249944,-0.08159 0.109014,-0.0196 0.226016,-0.02499 0.32622,-0.02771 0.05712,-0.0014 0.114239,-0.0024 0.170929,-0.0024 l 0.211653,-4.14e-4 h 57.152938"
         id="path13892" />
      <g
         id="g13856"
         transform="matrix(0.19463515,0,0,0.19463515,33.917043,-7.5232719)">
        <path
           inkscape:connector-curvature="0"
           id="path13232"
           d="m 45.1862,35.64053 c 1.41724,-1.77266 2.37897,-4.15282 2.12532,-6.58506 -2.07464,0.10316 -4.60634,1.36871 -6.07207,3.14276 -1.31607,1.5192 -2.4809,3.99902 -2.17723,6.3293 2.32889,0.20201 4.65563,-1.16408 6.12398,-2.887" />
        <path
           inkscape:connector-curvature="0"
           id="path13234"
           d="m 47.28506,38.98252 c -3.38211,-0.20146 -6.25773,1.91951 -7.87286,1.91951 -1.61602,0 -4.08931,-1.81799 -6.76438,-1.76899 -3.48177,0.05114 -6.71245,2.01976 -8.4793,5.15079 -3.63411,6.2636 -0.95904,15.55471 2.57494,20.65606 1.71618,2.5238 3.78447,5.30269 6.50976,5.20287 2.57494,-0.10104 3.58421,-1.66732 6.71416,-1.66732 3.12765,0 4.03679,1.66732 6.76252,1.61681 2.82665,-0.05054 4.59381,-2.52506 6.30997,-5.05132 1.96878,-2.877 2.77473,-5.65498 2.82542,-5.80748 -0.0507,-0.05051 -5.45058,-2.12204 -5.50065,-8.33358 -0.05098,-5.20101 4.23951,-7.6749 4.44144,-7.82832 C 52.3832,39.4881 48.5975,39.08404 47.28506,38.98252"
           style="fill:#000000" />
        <path
           inkscape:connector-curvature="0"
           id="path13238"
           d="m 76.73385,31.94381 c 7.35096,0 12.4697,5.06708 12.4697,12.44437 0,7.40363 -5.22407,12.49704 -12.65403,12.49704 H 68.4106 V 69.8284 H 62.53023 V 31.9438 H 76.73385 Z M 68.41059,51.9493 h 6.74732 c 5.11975,0 8.0336,-2.75636 8.0336,-7.53479 0,-4.77792 -2.91385,-7.50845 -8.00727,-7.50845 h -6.77365 z" />
        <path
           inkscape:connector-curvature="0"
           id="path13240"
           d="m 90.73997,61.97864 c 0,-4.8311 3.70182,-7.79761 10.26583,-8.16526 l 7.56061,-0.44614 v -2.12639 c 0,-3.07185 -2.07423,-4.90959 -5.53905,-4.90959 -3.28251,0 -5.33041,1.57492 -5.82871,4.04313 h -5.35574 c 0.31499,-4.98859 4.56777,-8.66407 11.3941,-8.66407 6.69466,0 10.97377,3.54432 10.97377,9.08388 v 19.03421 h -5.43472 v -4.54194 h -0.13065 c -1.60125,3.07185 -5.09341,5.01441 -8.71623,5.01441 -5.4084,0 -9.18921,-3.3605 -9.18921,-8.32224 z m 17.82644,-2.49404 v -2.17905 l -6.8,0.41981 c -3.38683,0.23649 -5.30306,1.73291 -5.30306,4.09579 0,2.41504 1.99523,3.99046 5.04075,3.99046 3.96413,0 7.06231,-2.73053 7.06231,-6.32701 z" />
        <path
           inkscape:connector-curvature="0"
           id="path13242"
           d="m 119.34167,79.9889 v -4.5946 c 0.4193,0.10483 1.36425,0.10483 1.83723,0.10483 2.6252,0 4.04313,-1.10245 4.90908,-3.9378 0,-0.05267 0.49931,-1.68025 0.49931,-1.70658 l -9.97616,-27.64562 h 6.14268 l 6.98432,22.47371 h 0.10432 l 6.98433,-22.47371 h 5.9857 l -10.34483,29.06304 c -2.36186,6.69517 -5.0924,8.84789 -10.81577,8.84789 -0.47297,0 -1.8909,-0.05267 -2.31021,-0.13116 z" />
      </g>
    </g>
    <path
       style="fill:#ffffff;stroke-width:0.12620234"
       inkscape:connector-curvature="0"
       d="m 160.8223,1.2254987 0.21095,4.01e-4 c 0.0571,4.05e-4 0.11429,9.23e-4 0.17175,0.0024 0.0999,0.0029 0.21688,0.0081 0.32587,0.02767 0.0947,0.01708 0.17419,0.04303 0.25045,0.08183 0.0753,0.03825 0.14425,0.08838 0.20447,0.148519 0.0605,0.06054 0.11064,0.12962 0.1494,0.205733 0.0386,0.07566 0.0644,0.154734 0.0814,0.250169 0.0195,0.107804 0.0249,0.225046 0.0276,0.325614 0.002,0.05677 0.002,0.113531 0.003,0.171647 5.1e-4,0.07029 5.1e-4,0.14053 5.1e-4,0.210947 v 9.6314673 c 0,0.07042 1e-5,0.140539 -5.1e-4,0.212325 -2.5e-4,0.05675 -9.3e-4,0.113519 -0.003,0.170385 -0.003,0.100419 -0.008,0.2176 -0.0279,0.326677 -0.0167,0.09412 -0.0425,0.173213 -0.0813,0.249249 -0.0386,0.07593 -0.0888,0.144927 -0.14895,0.205089 -0.0606,0.06058 -0.12931,0.110556 -0.20548,0.149158 -0.0757,0.03864 -0.155,0.06456 -0.24881,0.08144 -0.1112,0.0198 -0.23302,0.02528 -0.32477,0.02776 -0.0577,0.0014 -0.11517,0.0019 -0.17402,0.0024 -0.0701,4.62e-4 -0.14051,4.62e-4 -0.21065,4.62e-4 h -17.14774 c -9.2e-4,0 -0.002,0 -0.003,0 -0.0693,0 -0.13881,0 -0.20941,-4.62e-4 -0.0576,-2.52e-4 -0.11499,-9.23e-4 -0.17052,-0.0024 -0.0938,-0.0024 -0.21575,-0.008 -0.32603,-0.02766 -0.0946,-0.01698 -0.17394,-0.04293 -0.25062,-0.08205 -0.0755,-0.03825 -0.14414,-0.08819 -0.20473,-0.148881 -0.0601,-0.06004 -0.11009,-0.128825 -0.14872,-0.204866 -0.0387,-0.07596 -0.0645,-0.155292 -0.0815,-0.250537 -0.0197,-0.108862 -0.0251,-0.225571 -0.0278,-0.325308 -0.001,-0.05711 -0.002,-0.1142 -0.002,-0.170967 l -3.2e-4,-0.167592 1e-5,-0.04427 V 2.6503707 l -1e-5,-0.04427 2.6e-4,-0.167231 c 3.8e-4,-0.0571 9.3e-4,-0.1142 0.003,-0.171257 0.003,-0.09984 0.008,-0.216599 0.0279,-0.326372 0.0169,-0.09439 0.0427,-0.173713 0.0816,-0.250054 0.0383,-0.07546 0.0884,-0.144341 0.14882,-0.204765 0.0602,-0.06022 0.12912,-0.110289 0.20505,-0.148906 0.0759,-0.03864 0.15533,-0.06456 0.24995,-0.08159 0.10901,-0.0196 0.22601,-0.02499 0.32622,-0.02771 0.0571,-0.0014 0.11424,-0.0024 0.17093,-0.0024 l 0.21165,-4.14e-4 h 17.14773"
       id="path13894" />
    <path
       id="path13896"
       d="m 129.79313,-7.4326714 0.21095,4.01e-4 c 0.0572,4.05e-4 0.11429,9.23e-4 0.17175,0.0024 0.1,0.0029 0.21688,0.0081 0.32587,0.02767 0.0947,0.01708 0.17419,0.04303 0.25045,0.08183 0.0753,0.03825 0.14425,0.08838 0.20447,0.148519 0.0605,0.06054 0.11064,0.12962 0.1494,0.205733 0.0386,0.07566 0.0644,0.154734 0.0814,0.250169 0.0195,0.107804 0.0249,0.225046 0.0276,0.325614 10e-4,0.05677 0.002,0.113531 0.003,0.171647 5.1e-4,0.07029 5.1e-4,0.14053 5.1e-4,0.210947 v 9.631467 c 0,0.07042 1e-5,0.140539 -5.1e-4,0.212325 -2.5e-4,0.05675 -9.3e-4,0.113519 -0.003,0.170385 -0.003,0.100419 -0.008,0.2176 -0.0279,0.326677 -0.0167,0.09412 -0.0425,0.173213 -0.0813,0.249249 -0.0387,0.07593 -0.0888,0.144927 -0.14895,0.205089 -0.0606,0.06058 -0.12931,0.110556 -0.20548,0.149158 -0.0757,0.03864 -0.155,0.06456 -0.24881,0.08144 -0.1112,0.0198 -0.23302,0.02528 -0.32477,0.02776 -0.0577,0.0014 -0.11517,0.0019 -0.17402,0.0024 -0.0701,4.62e-4 -0.14051,4.62e-4 -0.21065,4.62e-4 H 112.6454 c -9.3e-4,0 -0.002,0 -0.003,0 -0.0693,0 -0.13881,0 -0.20941,-4.62e-4 -0.0576,-2.52e-4 -0.115,-9.23e-4 -0.17053,-0.0024 -0.0938,-0.0024 -0.21574,-0.008 -0.32603,-0.02766 -0.0946,-0.01698 -0.17393,-0.04293 -0.25061,-0.08205 -0.0755,-0.03825 -0.14415,-0.08819 -0.20474,-0.148881 -0.0601,-0.06004 -0.11008,-0.128825 -0.14871,-0.204866 -0.0387,-0.07596 -0.0645,-0.155292 -0.0816,-0.250537 -0.0197,-0.108862 -0.0251,-0.225571 -0.0278,-0.325308 -0.001,-0.05711 -0.002,-0.1142 -0.002,-0.170967 l -3.2e-4,-0.167592 10e-6,-0.04427 v -9.631477 l -10e-6,-0.04427 2.6e-4,-0.167231 c 3.8e-4,-0.0571 9.3e-4,-0.1142 0.003,-0.171257 0.003,-0.09984 0.008,-0.216599 0.0279,-0.326372 0.0169,-0.09439 0.0427,-0.173713 0.0816,-0.250054 0.0383,-0.07546 0.0884,-0.144341 0.14882,-0.204765 0.0602,-0.06022 0.12912,-0.110289 0.20505,-0.148906 0.0759,-0.03864 0.15533,-0.06456 0.24995,-0.08159 0.10901,-0.0196 0.22601,-0.02499 0.32622,-0.02771 0.0571,-0.0014 0.11424,-0.0024 0.17093,-0.0024 l 0.21165,-4.14e-4 h 17.14773"
       inkscape:connector-curvature="0"
       style="fill:#ffffff;stroke-width:0.12620234" />
    <g
       id="g14257">
      <path
         id="path14177"
         d="m 78.577902,51.261512 0.210946,4.01e-4 c 0.05715,4.05e-4 0.11429,9.23e-4 0.171751,0.0024 0.09995,0.0029 0.216878,0.0081 0.325867,0.02767 0.09474,0.01708 0.174195,0.04303 0.250448,0.08183 0.07528,0.03825 0.14425,0.08838 0.204472,0.148519 0.06045,0.06054 0.110643,0.12962 0.149399,0.205733 0.0386,0.07566 0.06438,0.154734 0.08135,0.250169 0.01948,0.107804 0.02488,0.225046 0.02761,0.325614 0.0015,0.05677 0.0023,0.113531 0.0026,0.171647 5.08e-4,0.07029 5.08e-4,0.14053 5.08e-4,0.210947 v 9.631467 c 0,0.07042 1.1e-5,0.140539 -5.08e-4,0.212325 -2.51e-4,0.05675 -9.28e-4,0.113519 -0.0026,0.170385 -0.0027,0.100419 -0.0081,0.2176 -0.02785,0.326677 -0.01672,0.09412 -0.04248,0.173213 -0.08131,0.249249 -0.03865,0.07593 -0.08876,0.144927 -0.148946,0.205089 -0.06056,0.06058 -0.129307,0.110556 -0.205481,0.149158 -0.07568,0.03864 -0.155004,0.06456 -0.248809,0.08144 -0.111197,0.0198 -0.23302,0.02528 -0.324768,0.02776 -0.05772,0.0014 -0.115173,0.0019 -0.17402,0.0024 -0.07013,4.62e-4 -0.140513,4.62e-4 -0.210657,4.62e-4 h -57.152946 -0.0028 c -0.06933,0 -0.13881,0 -0.209408,-4.62e-4 -0.05756,-2.52e-4 -0.114995,-9.23e-4 -0.170524,-0.0024 -0.09384,-0.0024 -0.215743,-0.008 -0.326031,-0.02766 -0.09461,-0.01698 -0.173931,-0.04293 -0.250612,-0.08205 -0.07545,-0.03825 -0.144148,-0.08819 -0.204738,-0.148881 -0.06012,-0.06004 -0.110087,-0.128825 -0.148717,-0.204866 -0.03867,-0.07596 -0.06454,-0.155292 -0.08155,-0.250537 -0.01967,-0.108862 -0.02506,-0.225571 -0.02777,-0.325308 -0.0015,-0.05711 -0.0022,-0.1142 -0.0025,-0.170967 L 19.999988,62.362131 20,62.317861 v -9.631477 l -1.2e-5,-0.04427 2.65e-4,-0.167231 c 3.79e-4,-0.0571 9.28e-4,-0.1142 0.0026,-0.171257 0.0027,-0.09984 0.0081,-0.216599 0.02792,-0.326372 0.01686,-0.09439 0.04272,-0.173713 0.08159,-0.250054 0.03833,-0.07546 0.08838,-0.144341 0.148819,-0.204765 0.06019,-0.06022 0.129116,-0.110289 0.205052,-0.148906 0.07586,-0.03864 0.15533,-0.06456 0.249944,-0.08159 0.109014,-0.0196 0.226016,-0.02499 0.32622,-0.02771 0.05712,-0.0014 0.114239,-0.0024 0.170929,-0.0024 l 0.211653,-4.14e-4 h 57.152938"
         inkscape:connector-curvature="0"
         style="fill:#ffffff;stroke-width:0.12620234"
         sodipodi:nodetypes="ccccccccccsscccccccccscscccccccccccccccccccccccc" />
      <g
         transform="matrix(1.0065055,0,0,1.0065055,1.2190109,-0.12142061)"
         id="g14193">
        <path
           style="fill:#000000;fill-opacity:1;stroke-width:0.05872674"
           inkscape:connector-curvature="0"
           d="m 47.774035,57.660421 v 2.980382 H 46.828534 V 53.28058 h 2.507632 a 2.2674394,2.2674394 0 0 1 1.623794,0.637186 2.0483887,2.0483887 0 0 1 0.678294,1.553322 2.0389924,2.0389924 0 0 1 -0.678294,1.562131 q -0.657739,0.627202 -1.623794,0.626614 h -1.562131 z m 0,-3.473687 v 2.569295 h 1.585622 a 1.249705,1.249705 0 0 0 0.935517,-0.380549 1.2544032,1.2544032 0 0 0 0,-1.7988 1.2332615,1.2332615 0 0 0 -0.935517,-0.390533 h -1.585622 z"
           id="path127" />
        <path
           style="fill:#000000;fill-opacity:1;stroke-width:0.05872674"
           inkscape:connector-curvature="0"
           d="m 53.817016,55.44055 q 1.048273,0 1.65492,0.560253 0.606647,0.560253 0.60606,1.536292 v 3.103708 h -0.904392 v -0.698848 h -0.04111 q -0.587267,0.863283 -1.562131,0.863283 -0.832158,0 -1.392411,-0.493305 A 1.5750512,1.5750512 0 0 1 51.6177,59.078671 q 0,-0.781652 0.590791,-1.243245 0.590791,-0.461592 1.5774,-0.462766 0.842142,0 1.387126,0.308315 V 57.464861 A 1.0764611,1.0764611 0 0 0 54.782484,56.628005 1.3389697,1.3389697 0 0 0 53.86987,56.283279 q -0.792223,0 -1.253815,0.66831 l -0.832746,-0.52443 q 0.687103,-0.986609 2.033707,-0.986609 z m -1.223278,3.658676 a 0.75522588,0.75522588 0 0 0 0.313601,0.616631 1.1533932,1.1533932 0 0 0 0.734672,0.246652 1.5075154,1.5075154 0 0 0 1.063541,-0.441625 q 0.469814,-0.442213 0.469814,-1.037702 -0.442213,-0.35236 -1.233262,-0.35236 -0.576109,0 -0.960769,0.277777 c -0.258985,0.187926 -0.387597,0.416373 -0.387597,0.690627 z"
           id="path129" />
        <path
           style="fill:#000000;fill-opacity:1;stroke-width:0.05872674"
           inkscape:connector-curvature="0"
           d="m 61.26944,55.604985 -3.15715,7.255688 h -0.976038 l 1.171598,-2.538756 -2.07599,-4.716932 h 1.027718 l 1.500468,3.617567 h 0.02055 l 1.45936,-3.617567 z"
           id="path131" />
        <path
           style="fill:#4285f4;stroke-width:0.05872674"
           inkscape:connector-curvature="0"
           d="m 43.953273,57.01795 a 5.038167,5.038167 0 0 0 -0.07282,-0.859759 h -3.987546 v 1.628492 h 2.283883 a 1.9573622,1.9573622 0 0 1 -0.84449,1.284941 v 1.057082 h 1.363047 c 0.798097,-0.735847 1.257927,-1.824053 1.257927,-3.110756 z"
           id="path133" />
        <path
           style="fill:#34a853;stroke-width:0.05872674"
           inkscape:connector-curvature="0"
           d="m 39.892906,61.149964 c 1.141061,0 2.10183,-0.374677 2.80244,-1.020671 l -1.363047,-1.057082 c -0.379375,0.257224 -0.867982,0.40404 -1.439393,0.40404 -1.102888,0 -2.038992,-0.74348 -2.373735,-1.745358 h -1.404156 v 1.089381 a 4.2283253,4.2283253 0 0 0 3.777891,2.32969 z"
           id="path135" />
        <path
           style="fill:#fbbc04;stroke-width:0.05872674"
           inkscape:connector-curvature="0"
           d="m 37.519171,57.730893 a 2.5334716,2.5334716 0 0 1 0,-1.618509 v -1.089381 h -1.404156 a 4.2283253,4.2283253 0 0 0 0,3.797271 z"
           id="path137" />
        <path
           style="fill:#ea4335;stroke-width:0.05872674"
           inkscape:connector-curvature="0"
           d="m 39.892906,54.367025 a 2.2956283,2.2956283 0 0 1 1.622033,0.634249 v 0 l 1.206834,-1.206835 a 4.0627159,4.0627159 0 0 0 -2.828867,-1.101126 4.2283253,4.2283253 0 0 0 -3.777891,2.32969 l 1.404156,1.089381 c 0.334743,-1.001878 1.270847,-1.745359 2.373735,-1.745359 z"
           id="path139" />
      </g>
    </g>
    <g
       id="g14246"
       transform="translate(0,-17.462505)">
      <path
         sodipodi:nodetypes="ccccccccccsscccccccccscscccccccccccccccccccccccc"
         style="opacity:0.98000004;fill:#ffffff;stroke-width:0.12620234"
         inkscape:connector-curvature="0"
         d="m 78.577902,88.305068 0.210946,4.01e-4 c 0.05715,4.05e-4 0.11429,9.23e-4 0.171751,0.0024 0.09995,0.0029 0.216878,0.0081 0.325867,0.02767 0.09474,0.01708 0.174195,0.04303 0.250448,0.08183 0.07528,0.03825 0.14425,0.08838 0.204472,0.148519 0.06045,0.06054 0.110643,0.12962 0.149399,0.205733 0.0386,0.07566 0.06438,0.154734 0.08135,0.250169 0.01948,0.107804 0.02488,0.225046 0.02761,0.325614 0.0015,0.05677 0.0023,0.113531 0.0026,0.171647 5.08e-4,0.07029 5.08e-4,0.14053 5.08e-4,0.210947 v 9.631467 c 0,0.07042 1.1e-5,0.140539 -5.08e-4,0.212325 -2.51e-4,0.05675 -9.28e-4,0.113519 -0.0026,0.170385 -0.0027,0.100419 -0.0081,0.2176 -0.02785,0.326675 -0.01672,0.0941 -0.04248,0.17322 -0.08131,0.24925 -0.03865,0.0759 -0.08876,0.14493 -0.148946,0.20509 -0.06056,0.0606 -0.129307,0.11056 -0.205481,0.14916 -0.07568,0.0386 -0.155004,0.0646 -0.248809,0.0814 -0.111197,0.0198 -0.23302,0.0253 -0.324768,0.0278 -0.05772,10e-4 -0.115173,0.002 -0.17402,0.002 -0.07013,4.6e-4 -0.140513,4.6e-4 -0.210657,4.6e-4 h -57.152946 -0.0028 c -0.06933,0 -0.13881,0 -0.209408,-4.6e-4 -0.05756,-2.5e-4 -0.114995,-9.2e-4 -0.170524,-0.002 -0.09384,-0.002 -0.215743,-0.008 -0.326031,-0.0277 -0.09461,-0.017 -0.173931,-0.0429 -0.250612,-0.082 -0.07545,-0.0383 -0.144148,-0.0882 -0.204738,-0.14888 -0.06012,-0.06 -0.110087,-0.12883 -0.148717,-0.20487 -0.03867,-0.076 -0.06454,-0.15529 -0.08155,-0.25054 -0.01967,-0.108858 -0.02506,-0.225567 -0.02777,-0.325304 -0.0015,-0.05711 -0.0022,-0.1142 -0.0025,-0.170967 L 19.999988,99.405697 20,99.361427 V 89.72994 l -1.2e-5,-0.04427 2.65e-4,-0.167231 c 3.79e-4,-0.0571 9.28e-4,-0.1142 0.0026,-0.171257 0.0027,-0.09984 0.0081,-0.216599 0.02792,-0.326372 0.01686,-0.09439 0.04272,-0.173713 0.08159,-0.250054 0.03833,-0.07546 0.08838,-0.144341 0.148819,-0.204765 0.06019,-0.06022 0.129116,-0.110289 0.205052,-0.148906 0.07586,-0.03864 0.15533,-0.06456 0.249944,-0.08159 0.109014,-0.0196 0.226016,-0.02499 0.32622,-0.02771 0.05712,-0.0014 0.114239,-0.0024 0.170929,-0.0024 l 0.211653,-4.14e-4 h 57.152938"
         id="path14195" />
      <g
         transform="matrix(0.7911861,0,0,0.7911861,10.246992,20.345215)"
         id="g14231">
        <path
           id="path5273"
           d="m 45.323925,97.535252 c -1.725877,1.273704 -4.228042,1.951037 -6.382808,1.951037 -3.01969,0 -5.739077,-1.116277 -7.797006,-2.974445 -0.161396,-0.14605 -0.01746,-0.345282 0.176741,-0.232305 2.220119,1.291961 4.965965,2.0701 7.801504,2.0701 1.912938,0 4.015846,-0.397139 5.950744,-1.217877 0.291836,-0.12356 0.536575,0.192352 0.250825,0.40349 z"
           inkscape:connector-curvature="0"
           style="isolation:isolate;fill:#f79c34;fill-rule:evenodd;stroke-width:0.26458332" />
        <path
           id="path5275"
           d="m 46.042269,96.715044 c -0.220927,-0.282575 -1.459177,-0.13388 -2.015596,-0.06721 -0.16854,0.02037 -0.194733,-0.127 -0.04286,-0.233627 0.987954,-0.694002 2.606939,-0.493712 2.795058,-0.261143 0.189441,0.234156 -0.05001,1.857374 -0.975519,2.63181 -0.14261,0.119062 -0.278077,0.05556 -0.214842,-0.1016 0.208492,-0.520436 0.674688,-1.685131 0.453761,-1.968235 z"
           inkscape:connector-curvature="0"
           style="isolation:isolate;fill:#f79c34;fill-rule:evenodd;stroke-width:0.26458332" />
        <path
           id="path5277"
           d="m 44.065831,91.512012 v -0.674158 c 5.3e-4,-0.102658 0.07779,-0.170921 0.170921,-0.170656 l 3.022071,-2.65e-4 c 0.09657,0 0.17436,0.07012 0.17436,0.170127 v 0.578115 c -0.0011,0.0971 -0.08281,0.223573 -0.227541,0.424391 l -1.56554,2.2352 c 0.581025,-0.01349 1.195652,0.07355 1.723761,0.370153 0.119062,0.06694 0.151077,0.166158 0.160337,0.26326 v 0.719402 c 0,0.09922 -0.108479,0.213783 -0.222779,0.154252 -0.93001,-0.487362 -2.164292,-0.540544 -3.192992,0.0058 -0.105039,0.05609 -0.214841,-0.05715 -0.214841,-0.156369 v -0.683948 c 0,-0.109273 0.0021,-0.296598 0.112448,-0.463285 l 1.813454,-2.601913 -1.579034,-2.64e-4 c -0.09657,0 -0.174095,-0.06879 -0.174625,-0.169863 z"
           inkscape:connector-curvature="0"
           style="isolation:isolate;fill:#000000;fill-opacity:1;fill-rule:evenodd;stroke-width:0.26458332" />
        <path
           id="path5279"
           d="m 33.042232,95.723385 h -0.919428 c -0.08758,-0.0056 -0.157427,-0.07117 -0.16457,-0.15531 l 7.93e-4,-4.718844 c 0,-0.09419 0.07937,-0.169598 0.177536,-0.169598 l 0.856191,-2.64e-4 c 0.08943,0.0045 0.161396,0.07223 0.166953,0.158485 v 0.61595 h 0.01746 c 0.223044,-0.595842 0.643467,-0.873919 1.20994,-0.873919 0.574939,0 0.935566,0.278077 1.193006,0.873919 0.223044,-0.595842 0.729456,-0.873919 1.27,-0.873919 0.386291,0 0.806714,0.159015 1.064154,0.516467 0.291835,0.397404 0.23204,0.973137 0.23204,1.47955 l -0.0011,2.977885 c 0,0.09393 -0.07911,0.169598 -0.177271,0.169598 h -0.918104 c -0.0926,-0.0058 -0.1651,-0.07885 -0.1651,-0.169333 l -2.64e-4,-2.501636 c 0,-0.198437 0.0172,-0.694795 -0.02593,-0.883443 -0.06853,-0.318029 -0.274372,-0.407459 -0.540279,-0.407459 -0.223308,0 -0.455083,0.148961 -0.549539,0.387086 -0.09446,0.238654 -0.08572,0.635529 -0.08572,0.903816 v 2.501371 c 0,0.09393 -0.07938,0.169598 -0.177271,0.169598 H 34.58736 c -0.09234,-0.0058 -0.1651,-0.07885 -0.1651,-0.169333 l -0.0011,-2.501636 c 0,-0.526256 0.08599,-1.300427 -0.566209,-1.300427 -0.660929,0 -0.634999,0.754327 -0.634999,1.300427 l -5.3e-4,2.501371 c 0,0.09393 -0.07937,0.169598 -0.17727,0.169598 z"
           inkscape:connector-curvature="0"
           style="isolation:isolate;fill:#000000;fill-opacity:1;fill-rule:evenodd;stroke-width:0.26458332" />
        <path
           id="path5281"
           d="m 50.043033,91.543233 c -0.677862,0 -0.720725,0.923131 -0.720725,1.499129 0,0.575998 -0.0085,1.807369 0.712523,1.807369 0.712259,0 0.746654,-0.992981 0.746654,-1.598612 0,-0.39714 -0.01746,-0.873919 -0.137583,-1.251215 -0.102923,-0.327819 -0.309033,-0.456671 -0.600869,-0.456671 z m -0.0082,-0.963348 c 1.364457,0 2.102379,1.172104 2.102379,2.661444 0,1.439333 -0.815181,2.58154 -2.102379,2.58154 -1.339056,0 -2.068512,-1.17184 -2.068512,-2.631282 0,-1.46976 0.737923,-2.611702 2.068512,-2.611702 z"
           inkscape:connector-curvature="0"
           style="isolation:isolate;fill:#000000;fill-opacity:1;fill-rule:evenodd;stroke-width:0.26458332" />
        <path
           id="path5283"
           d="m 53.907008,95.723385 h -0.916252 c -0.09181,-0.0058 -0.164835,-0.07885 -0.164835,-0.169333 l -0.0016,-4.720431 c 0.0079,-0.08652 0.08414,-0.153988 0.176742,-0.153988 l 0.852752,-2.64e-4 c 0.08043,0.0042 0.146579,0.05874 0.163513,0.132027 v 0.721783 h 0.0172 c 0.257705,-0.645583 0.617803,-0.953294 1.252803,-0.953294 0.411956,0 0.815445,0.148961 1.072885,0.556154 0.240242,0.377296 0.240242,1.012561 0.240242,1.469496 v 2.969419 c -0.01006,0.08361 -0.0852,0.148431 -0.176213,0.148431 H 55.50271 c -0.08519,-0.0053 -0.153723,-0.068 -0.163777,-0.148431 v -2.56196 c 0,-0.516467 0.06033,-1.271323 -0.574939,-1.271323 -0.223044,0 -0.429154,0.14896 -0.532077,0.377295 -0.128852,0.288132 -0.14605,0.575998 -0.14605,0.894028 v 2.540793 c -0.0016,0.09393 -0.08096,0.169598 -0.178859,0.169598 z"
           inkscape:connector-curvature="0"
           style="isolation:isolate;fill:#000000;fill-opacity:1;fill-rule:evenodd;stroke-width:0.26458332" />
        <path
           id="path5285"
           d="m 42.583371,95.711744 c -0.06059,0.0545 -0.148167,0.05821 -0.216958,0.02143 -0.30533,-0.253736 -0.360098,-0.370946 -0.52705,-0.612775 -0.504561,0.514085 -0.862013,0.668337 -1.515798,0.668337 -0.773906,0 -1.376098,-0.477837 -1.376098,-1.432983 0,-0.74639 0.404548,-1.25386 0.980546,-1.502569 C 40.426752,92.63411 41.1234,92.594423 41.6568,92.534627 V 92.4153 c 0,-0.21934 0.0172,-0.477573 -0.111919,-0.66675 -0.111918,-0.169334 -0.32676,-0.238919 -0.515937,-0.238919 -0.350838,0 -0.662252,0.179652 -0.738981,0.551921 -0.01614,0.08281 -0.07646,0.1651 -0.159544,0.169333 l -0.891381,-0.09657 c -0.07514,-0.0172 -0.15875,-0.07752 -0.137319,-0.192352 0.202406,-1.066006 1.154377,-1.398323 2.019564,-1.407319 h 0.06826 c 0.442912,0.0056 1.008592,0.127 1.353079,0.457465 0.447411,0.418042 0.404019,0.975254 0.404019,1.582473 v 1.43219 c 0,0.431006 0.179123,0.619918 0.347133,0.851958 0.059,0.08387 0.07197,0.183092 -0.0029,0.244475 -0.187854,0.157427 -0.521494,0.447146 -0.70485,0.610658 z M 41.6568,93.470194 c 0,0.358245 0.0085,0.656695 -0.171979,0.975254 -0.146315,0.258498 -0.378619,0.417777 -0.636588,0.417777 -0.352425,0 -0.5588,-0.268552 -0.5588,-0.66675 0,-0.783167 0.702205,-0.925513 1.367367,-0.925513 z"
           inkscape:connector-curvature="0"
           style="isolation:isolate;fill:#000000;fill-opacity:1;fill-rule:evenodd;stroke-width:0.26458332" />
        <path
           id="path5287"
           d="m 30.531336,95.711744 c -0.06085,0.0545 -0.148696,0.05821 -0.217223,0.02143 -0.305594,-0.253736 -0.360363,-0.370946 -0.52705,-0.612775 -0.504825,0.514085 -0.862013,0.668337 -1.515798,0.668337 -0.773906,0 -1.376098,-0.477837 -1.376098,-1.432983 0,-0.74639 0.404019,-1.25386 0.980546,-1.502569 0.498739,-0.219075 1.195387,-0.258762 1.728523,-0.318558 V 92.4153 c 0,-0.21934 0.01746,-0.477573 -0.111654,-0.66675 -0.111919,-0.169334 -0.327025,-0.238919 -0.515938,-0.238919 -0.350837,0 -0.662781,0.179652 -0.738981,0.551921 -0.01588,0.08281 -0.07647,0.1651 -0.159809,0.169333 l -0.891116,-0.09657 c -0.07541,-0.0172 -0.159015,-0.07752 -0.137319,-0.192352 0.201877,-1.066006 1.154113,-1.398323 2.019565,-1.407319 h 0.06826 c 0.442913,0.0056 1.008592,0.127 1.353079,0.457465 0.447146,0.418042 0.404019,0.975254 0.404019,1.582473 v 1.43219 c 0,0.431006 0.179123,0.619918 0.347133,0.851958 0.05847,0.08387 0.07197,0.183092 -0.0029,0.244475 -0.187854,0.157427 -0.521758,0.447146 -0.705115,0.610658 z m -0.9271,-2.24155 c 0,0.358245 0.0087,0.656695 -0.171979,0.975254 -0.14605,0.258498 -0.378355,0.417777 -0.636588,0.417777 -0.352425,0 -0.5588,-0.268552 -0.5588,-0.66675 0,-0.783167 0.702469,-0.925513 1.367367,-0.925513 z"
           inkscape:connector-curvature="0"
           style="isolation:isolate;fill:#000000;fill-opacity:1;fill-rule:evenodd;stroke-width:0.26458332" />
        <path
           id="path5289"
           d="m 69.168439,97.416189 c 0,-0.119591 0,-0.227012 0,-0.346604 0,-0.09869 0.04842,-0.166687 0.151342,-0.160602 0.192088,0.02725 0.463815,0.0545 0.656696,0.01482 0.251883,-0.05239 0.432594,-0.230981 0.539485,-0.475721 0.150548,-0.344488 0.250296,-0.6223 0.313267,-0.804598 l -1.912673,-4.738158 c -0.03228,-0.08043 -0.0418,-0.229659 0.118798,-0.229659 h 0.668602 c 0.127529,0 0.179388,0.08096 0.207963,0.160338 l 1.386681,3.848629 1.32371,-3.848629 c 0.02699,-0.07885 0.08123,-0.160338 0.207698,-0.160338 h 0.630502 c 0.159544,0 0.150548,0.148961 0.118798,0.229659 l -1.897327,4.88606 c -0.245533,0.650346 -0.572558,1.68619 -1.309158,1.866106 -0.369359,0.09657 -0.83529,0.06165 -1.108869,-0.05292 -0.06906,-0.03466 -0.09551,-0.127265 -0.09551,-0.188384 z"
           inkscape:connector-curvature="0"
           style="isolation:isolate;fill:#000000;fill-opacity:1;fill-rule:evenodd;stroke-width:0.26458332" />
        <path
           id="path5291"
           d="m 68.276529,95.434725 c 0,0.08811 -0.07223,0.160337 -0.160867,0.160337 h -0.471487 c -0.101865,0 -0.17145,-0.07355 -0.184415,-0.160337 l -0.04736,-0.32094 c -0.216694,0.183356 -0.4826,0.344488 -0.770996,0.456671 -0.554567,0.215371 -1.1938,0.25109 -1.735667,-0.08176 -0.391848,-0.240506 -0.59981,-0.710671 -0.59981,-1.195652 0,-0.375179 0.115623,-0.747184 0.372004,-1.017323 0.342106,-0.369094 0.837936,-0.550334 1.436688,-0.550334 0.361685,0 0.87921,0.0426 1.255712,0.16563 v -0.645848 c 0,-0.656696 -0.27649,-0.940859 -1.005417,-0.940859 -0.557212,0 -0.983456,0.08414 -1.576652,0.268552 -0.09499,0.0032 -0.150548,-0.06906 -0.150548,-0.157162 v -0.3683 c 0,-0.08837 0.07541,-0.173831 0.157163,-0.19976 0.423598,-0.18468 1.023673,-0.299773 1.661583,-0.32094 0.831586,0 1.820069,0.18759 1.820069,1.466585 z M 67.370331,94.49175 v -0.974461 c -0.316442,-0.08652 -0.840052,-0.122502 -1.042723,-0.122502 -0.320146,0 -0.670719,0.07567 -0.85381,0.272786 -0.13679,0.144462 -0.198702,0.351896 -0.198702,0.55245 0,0.259291 0.08969,0.519377 0.299243,0.647964 0.243417,0.165365 0.620978,0.145257 0.975784,0.04445 0.341048,-0.09684 0.661193,-0.268023 0.820208,-0.420687 z"
           inkscape:connector-curvature="0"
           style="isolation:isolate;fill:#000000;fill-opacity:1;fill-rule:evenodd;stroke-width:0.26458332" />
        <path
           id="path5293"
           d="m 61.324602,91.318866 c 1.046162,0 1.331119,0.82259 1.331119,1.764507 0.0058,0.635 -0.110861,1.201208 -0.439738,1.525323 -0.246062,0.242623 -0.520964,0.308768 -0.934773,0.308768 -0.3683,0 -0.852752,-0.192087 -1.214702,-0.459581 v -2.693194 c 0.376767,-0.289454 0.857515,-0.445823 1.258094,-0.445823 z m -1.418431,6.266392 H 59.27461 c -0.08837,0 -0.160602,-0.07223 -0.160602,-0.160337 0,-2.193396 0,-4.387057 0,-6.580452 0,-0.08811 0.07223,-0.160338 0.160602,-0.160338 h 0.483394 c 0.1016,0 0.171186,0.07355 0.18415,0.160338 l 0.0508,0.344752 c 0.452702,-0.401902 1.035579,-0.659607 1.59094,-0.659607 1.555485,0 2.066925,1.281642 2.066925,2.614348 0,1.42584 -0.782373,2.571486 -2.105555,2.571486 -0.557212,0 -1.078177,-0.205582 -1.478756,-0.562769 v 2.272242 c 0,0.08811 -0.07223,0.160337 -0.160337,0.160337 z"
           inkscape:connector-curvature="0"
           style="isolation:isolate;fill:#000000;fill-opacity:1;fill-rule:evenodd;stroke-width:0.26458332" />
      </g>
    </g>
    <g
       id="g14435"
       transform="translate(0,-6.879167)">
      <path
         id="path14268"
         d="m 78.577902,96.242568 0.210946,4.01e-4 c 0.05715,4.05e-4 0.11429,9.23e-4 0.171751,0.0024 0.09995,0.0029 0.216878,0.0081 0.325867,0.02767 0.09474,0.01708 0.174195,0.04303 0.250448,0.08183 0.07528,0.03825 0.14425,0.08838 0.204472,0.148519 0.06045,0.06054 0.110643,0.12962 0.149399,0.205733 0.0386,0.07566 0.06438,0.154734 0.08135,0.250169 0.01948,0.107804 0.02488,0.225046 0.02761,0.325614 0.0015,0.05677 0.0023,0.113531 0.0026,0.171647 5.08e-4,0.07029 5.08e-4,0.14053 5.08e-4,0.210947 v 9.631472 c 0,0.0704 1.1e-5,0.14053 -5.08e-4,0.21232 -2.51e-4,0.0567 -9.28e-4,0.11352 -0.0026,0.17039 -0.0027,0.10041 -0.0081,0.2176 -0.02785,0.32667 -0.01672,0.0941 -0.04248,0.17322 -0.08131,0.24925 -0.03865,0.0759 -0.08876,0.14493 -0.148946,0.20509 -0.06056,0.0606 -0.129307,0.11056 -0.205481,0.14916 -0.07568,0.0386 -0.155004,0.0646 -0.248809,0.0814 -0.111197,0.0198 -0.23302,0.0253 -0.324768,0.0278 -0.05772,10e-4 -0.115173,0.002 -0.17402,0.002 -0.07013,4.6e-4 -0.140513,4.6e-4 -0.210657,4.6e-4 h -57.152946 -0.0028 c -0.06933,0 -0.13881,0 -0.209408,-4.6e-4 -0.05756,-2.5e-4 -0.114995,-9.2e-4 -0.170524,-0.002 -0.09384,-0.002 -0.215743,-0.008 -0.326031,-0.0277 -0.09461,-0.017 -0.173931,-0.0429 -0.250612,-0.082 -0.07545,-0.0383 -0.144148,-0.0882 -0.204738,-0.14888 -0.06012,-0.06 -0.110087,-0.12883 -0.148717,-0.20487 -0.03867,-0.076 -0.06454,-0.15529 -0.08155,-0.25054 -0.01967,-0.10886 -0.02506,-0.22557 -0.02777,-0.3253 -0.0015,-0.0571 -0.0022,-0.1142 -0.0025,-0.17097 L 19.999988,107.3432 20,107.2989 v -9.63149 l -1.2e-5,-0.04427 2.65e-4,-0.167231 c 3.79e-4,-0.0571 9.28e-4,-0.1142 0.0026,-0.171257 0.0027,-0.09984 0.0081,-0.216599 0.02792,-0.326372 0.01686,-0.09439 0.04272,-0.173713 0.08159,-0.250054 0.03833,-0.07546 0.08838,-0.144341 0.148819,-0.204765 0.06019,-0.06022 0.129116,-0.110289 0.205052,-0.148906 0.07586,-0.03864 0.15533,-0.06456 0.249944,-0.08159 0.109014,-0.0196 0.226016,-0.02499 0.32622,-0.02771 0.05712,-0.0014 0.114239,-0.0024 0.170929,-0.0024 l 0.211653,-4.14e-4 h 57.152938"
         inkscape:connector-curvature="0"
         style="opacity:0.98000004;fill:#ffffff;stroke-width:0.12620234"
         sodipodi:nodetypes="ccccccccccsscccccccccscscccccccccccccccccccccccc" />
      <g
         transform="matrix(0.04473956,0,0,0.04473956,32.552964,91.275716)"
         id="g14411">
	<path
   style="fill:#003087"
   inkscape:connector-curvature="0"
   d="m 168.379,169.853 c -8.399,-5.774 -19.359,-8.668 -32.88,-8.668 H 83.153 c -4.145,0 -6.435,2.073 -6.87,6.215 L 55.018,300.883 c -0.221,1.311 0.107,2.51 0.981,3.6 0.869,1.092 1.962,1.635 3.271,1.635 h 24.864 c 4.361,0 6.758,-2.068 7.198,-6.215 l 5.888,-35.986 c 0.215,-1.744 0.982,-3.162 2.291,-4.254 1.308,-1.09 2.944,-1.803 4.907,-2.13 1.963,-0.324 3.814,-0.487 5.562,-0.487 1.743,0 3.814,0.11 6.217,0.327 2.397,0.218 3.925,0.324 4.58,0.324 18.756,0 33.478,-5.285 44.167,-15.866 10.684,-10.577 16.032,-25.243 16.032,-44.004 0,-12.867 -4.202,-22.191 -12.597,-27.974 z m -26.99,40.08 c -1.094,7.635 -3.926,12.649 -8.506,15.049 -4.581,2.403 -11.124,3.598 -19.629,3.598 l -10.797,0.327 5.563,-35.007 c 0.434,-2.397 1.851,-3.597 4.252,-3.597 h 6.218 c 8.72,0 15.049,1.257 18.975,3.761 3.924,2.51 5.233,7.801 3.924,15.869 z"
   id="path14399" />

	<path
   style="fill:#009cde"
   inkscape:connector-curvature="0"
   d="m 720.794,161.185 h -24.208 c -2.405,0 -3.821,1.2 -4.253,3.6 l -21.267,136.099 -0.328,0.654 c 0,1.096 0.437,2.127 1.311,3.109 0.868,0.98 1.963,1.471 3.27,1.471 h 21.595 c 4.138,0 6.429,-2.068 6.871,-6.215 L 725.05,166.09 v -0.325 c -10e-4,-3.053 -1.423,-4.58 -4.256,-4.58 z"
   id="path14401" />

	<path
   style="fill:#003087"
   inkscape:connector-curvature="0"
   d="m 428.31,213.856 c 0,-1.088 -0.439,-2.126 -1.306,-3.106 -0.875,-0.981 -1.858,-1.474 -2.945,-1.474 h -25.192 c -2.404,0 -4.366,1.096 -5.889,3.271 l -34.679,51.04 -14.395,-49.075 c -1.095,-3.487 -3.492,-5.236 -7.197,-5.236 h -24.541 c -1.093,0 -2.074,0.492 -2.941,1.474 -0.875,0.98 -1.309,2.019 -1.309,3.106 0,0.44 2.127,6.871 6.379,19.303 4.252,12.435 8.832,25.849 13.74,40.245 4.908,14.393 7.469,22.031 7.688,22.898 -17.886,24.43 -26.826,37.517 -26.826,39.259 0,2.838 1.416,4.254 4.253,4.254 h 25.192 c 2.398,0 4.36,-1.088 5.889,-3.27 l 83.427,-120.399 c 0.434,-0.433 0.652,-1.193 0.652,-2.29 z"
   id="path14403" />

	<path
   style="fill:#009cde"
   inkscape:connector-curvature="0"
   d="m 662.887,209.276 h -24.866 c -3.055,0 -4.904,3.6 -5.558,10.798 -5.677,-8.721 -16.031,-13.088 -31.083,-13.088 -15.704,0 -29.066,5.89 -40.077,17.668 -11.016,11.778 -16.521,25.631 -16.521,41.551 0,12.871 3.761,23.121 11.285,30.752 7.525,7.639 17.612,11.451 30.266,11.451 6.323,0 12.757,-1.311 19.3,-3.926 6.544,-2.617 11.665,-6.105 15.379,-10.469 0,0.219 -0.222,1.199 -0.655,2.943 -0.44,1.748 -0.655,3.059 -0.655,3.926 0,3.494 1.414,5.234 4.254,5.234 h 22.576 c 4.138,0 6.541,-2.068 7.194,-6.215 l 13.415,-85.39 c 0.215,-1.309 -0.112,-2.507 -0.982,-3.599 -0.875,-1.089 -1.963,-1.636 -3.272,-1.636 z m -42.694,64.453 c -5.562,5.453 -12.268,8.178 -20.12,8.178 -6.328,0 -11.449,-1.742 -15.377,-5.234 -3.927,-3.484 -5.89,-8.283 -5.89,-14.395 0,-8.065 2.726,-14.886 8.18,-20.447 5.447,-5.562 12.214,-8.343 20.285,-8.343 6.101,0 11.173,1.8 15.212,5.397 4.032,3.6 6.054,8.563 6.054,14.889 -0.001,7.851 -2.783,14.505 -8.344,19.955 z"
   id="path14405" />

	<path
   style="fill:#003087"
   inkscape:connector-curvature="0"
   d="m 291.231,209.276 h -24.865 c -3.058,0 -4.908,3.6 -5.563,10.798 -5.889,-8.721 -16.25,-13.088 -31.081,-13.088 -15.704,0 -29.065,5.89 -40.078,17.668 -11.016,11.778 -16.521,25.631 -16.521,41.551 0,12.871 3.763,23.121 11.288,30.752 7.525,7.639 17.61,11.451 30.262,11.451 6.104,0 12.433,-1.311 18.975,-3.926 6.543,-2.617 11.778,-6.105 15.704,-10.469 -0.875,2.617 -1.309,4.908 -1.309,6.869 0,3.494 1.417,5.234 4.253,5.234 h 22.574 c 4.141,0 6.543,-2.068 7.198,-6.215 l 13.413,-85.39 c 0.215,-1.309 -0.111,-2.507 -0.981,-3.599 -0.873,-1.089 -1.963,-1.636 -3.269,-1.636 z m -42.696,64.615 c -5.563,5.35 -12.382,8.016 -20.447,8.016 -6.329,0 -11.4,-1.742 -15.214,-5.234 -3.819,-3.484 -5.726,-8.283 -5.726,-14.395 0,-8.065 2.725,-14.886 8.18,-20.447 5.449,-5.562 12.211,-8.343 20.284,-8.343 6.104,0 11.175,1.8 15.214,5.397 4.032,3.6 6.052,8.563 6.052,14.889 0,8.07 -2.781,14.779 -8.343,20.117 z"
   id="path14407" />

	<path
   style="fill:#009cde"
   inkscape:connector-curvature="0"
   d="m 540.036,169.853 c -8.398,-5.774 -19.356,-8.668 -32.879,-8.668 h -52.019 c -4.365,0 -6.765,2.073 -7.198,6.215 l -21.265,133.483 c -0.221,1.311 0.106,2.51 0.981,3.6 0.866,1.092 1.962,1.635 3.271,1.635 h 26.826 c 2.617,0 4.361,-1.416 5.235,-4.252 l 5.89,-37.949 c 0.216,-1.744 0.98,-3.162 2.29,-4.254 1.309,-1.09 2.943,-1.803 4.908,-2.13 1.962,-0.324 3.813,-0.487 5.562,-0.487 1.743,0 3.814,0.11 6.214,0.327 2.399,0.218 3.93,0.324 4.58,0.324 18.759,0 33.479,-5.285 44.168,-15.866 10.687,-10.577 16.031,-25.243 16.031,-44.004 10e-4,-12.867 -4.2,-22.191 -12.595,-27.974 z m -33.534,53.82 c -4.799,3.271 -11.997,4.906 -21.592,4.906 l -10.47,0.327 5.563,-35.007 c 0.432,-2.397 1.849,-3.597 4.252,-3.597 h 5.887 c 4.797,0 8.614,0.218 11.454,0.653 2.831,0.439 5.561,1.799 8.178,4.089 2.619,2.29 3.926,5.618 3.926,9.979 0,9.162 -2.402,15.376 -7.198,18.65 z"
   id="path14409" />

</g>
    </g>
    <g
       id="g14555"
       transform="translate(0,11.641668)">
      <path
         sodipodi:nodetypes="ccccccccccsscccccccccscscccccccccccccccccccccccc"
         style="opacity:0.98000004;fill:#ffffff;stroke-width:0.12620234"
         inkscape:connector-curvature="0"
         d="m 78.575049,112.11757 0.210946,4e-4 c 0.05715,4.1e-4 0.11429,9.3e-4 0.171751,0.002 0.09995,0.003 0.216878,0.008 0.325867,0.0277 0.09474,0.0171 0.174195,0.043 0.250448,0.0818 0.07528,0.0382 0.14425,0.0884 0.204472,0.14852 0.06045,0.0605 0.110643,0.12962 0.149399,0.20573 0.0386,0.0757 0.06438,0.15474 0.08135,0.25017 0.01948,0.10781 0.02488,0.22505 0.02761,0.32562 0.0015,0.0568 0.0023,0.11353 0.0026,0.17164 C 80,113.40145 80,113.47168 80,113.5421 v 9.63147 c 0,0.0704 1.1e-5,0.14053 -5.08e-4,0.21232 -2.51e-4,0.0567 -9.28e-4,0.11352 -0.0026,0.17039 -0.0027,0.10041 -0.0081,0.2176 -0.02785,0.32667 -0.01672,0.0941 -0.04248,0.17322 -0.08131,0.24925 -0.03865,0.0759 -0.08876,0.14493 -0.148946,0.20509 -0.06056,0.0606 -0.129307,0.11056 -0.205481,0.14916 -0.07568,0.0386 -0.155004,0.0646 -0.248809,0.0814 -0.111197,0.0198 -0.23302,0.0253 -0.324768,0.0278 -0.05772,10e-4 -0.115173,0.002 -0.17402,0.002 -0.07013,4.6e-4 -0.140513,4.6e-4 -0.210657,4.6e-4 h -57.152946 -0.0028 c -0.06933,0 -0.13881,0 -0.209408,-4.6e-4 -0.05756,-2.5e-4 -0.114995,-9.2e-4 -0.170524,-0.002 -0.09384,-0.002 -0.215743,-0.008 -0.326031,-0.0277 -0.09461,-0.017 -0.173931,-0.0429 -0.250612,-0.082 -0.07545,-0.0383 -0.144148,-0.0882 -0.204738,-0.14888 -0.06012,-0.06 -0.110087,-0.12883 -0.148717,-0.20487 -0.03867,-0.076 -0.06454,-0.15529 -0.08155,-0.25054 -0.01967,-0.10886 -0.02506,-0.22557 -0.02777,-0.3253 -0.0015,-0.0571 -0.0022,-0.1142 -0.0025,-0.17097 l -3.2e-4,-0.16719 1.2e-5,-0.0443 v -9.63149 l -1.2e-5,-0.0443 2.65e-4,-0.16723 c 3.79e-4,-0.0571 9.28e-4,-0.1142 0.0026,-0.17125 0.0027,-0.0998 0.0081,-0.2166 0.02792,-0.32638 0.01686,-0.0944 0.04272,-0.17371 0.08159,-0.25005 0.03833,-0.0755 0.08838,-0.14434 0.148819,-0.20476 0.06019,-0.0602 0.129116,-0.11029 0.205052,-0.14891 0.07586,-0.0386 0.15533,-0.0646 0.249944,-0.0816 0.109014,-0.0196 0.226016,-0.025 0.32622,-0.0277 0.05712,-0.001 0.114239,-0.002 0.170929,-0.002 l 0.211653,-4.1e-4 h 57.152938"
         id="path14437" />
      <g
         transform="translate(5.9529735,0.02741819)"
         id="g14509">
        <g
           transform="matrix(0.01429977,0,0,0.01429977,45.368334,114.96272)"
           style="fill:none;fill-rule:evenodd;stroke:none;stroke-width:1"
           id="Page-1-9">
          <g
             style="fill-rule:nonzero"
             id="amex">
            <rect
               style="fill:#2557d6"
               id="Rectangle-1-1"
               x="0"
               y="0"
               width="750"
               height="471"
               rx="40" />
            <path
               style="fill:#ffffff"
               inkscape:connector-curvature="0"
               d="m 0.002688,221.18508 h 36.024161 l 8.12273,-19.51002 h 18.185017 l 8.101446,19.51002 h 70.880328 v -14.91599 l 6.32685,14.97957 h 36.79572 l 6.32685,-15.20212 v 15.13854 h 176.15122 l -0.0825,-32.02567 h 3.40819 c 2.38654,0.0822 3.0836,0.30203 3.0836,4.22575 v 27.79992 h 91.10602 v -7.45535 c 7.3485,3.92107 18.77832,7.45535 33.81854,7.45535 h 38.32822 l 8.20255,-19.51002 h 18.18501 l 8.02164,19.51002 h 73.86016 v -18.53239 l 11.18506,18.53239 h 59.18711 V 98.67789 h -58.57518 v 14.46825 l -8.20255,-14.46825 h -60.10501 v 14.46825 l -7.53208,-14.46825 h -81.1874 c -13.59021,0 -25.53618,1.88901 -35.18607,7.15332 v -7.15332 h -56.02636 v 7.15332 c -6.1406,-5.42592 -14.5081,-7.15332 -23.81213,-7.15332 H 179.90796 l -13.73389,31.64151 -14.1037,-31.64151 h -64.471 v 14.46825 L 80.516924,98.67789 H 25.533518 L -3e-6,156.92445 v 64.26063 h 0.0026 z M 227.39957,203.51436 h -21.61485 l -0.0798,-68.79372 -30.57264,68.79372 H 156.62 L 125.96754,134.6597 v 68.85466 H 83.084427 L 74.982981,183.92222 H 31.083524 L 22.8996,203.51436 H 4.7e-5 L 37.756241,115.67692 H 69.08183 l 35.8592,83.16394 v -83.16394 h 34.41186 l 27.5928,59.58714 25.34728,-59.58714 h 35.1036 v 87.83744 z M 67.777214,165.69287 53.346265,130.67606 38.997794,165.69287 Z m 245.642256,37.82149 h -70.43336 v -87.83744 h 70.43336 v 18.29129 h -49.34831 v 15.83269 h 48.16435 v 18.00516 h -48.16435 v 17.54153 h 49.34831 z m 99.25581,-64.18115 c 0,14.00461 -9.38651,21.24005 -14.85665,23.41254 4.61343,1.74859 8.55374,4.83776 10.42945,7.39706 2.97717,4.36883 3.49067,8.27135 3.49067,16.11616 v 17.25539 h -21.26597 l -0.0798,-11.07704 c 0,-5.28552 0.50817,-12.88658 -3.32838,-17.11233 -3.08094,-3.08918 -7.77686,-3.75947 -15.36746,-3.75947 h -22.63351 v 31.94884 h -21.08238 v -87.83744 h 48.49427 c 10.77532,0 18.71447,0.28348 25.53087,4.20721 6.67005,3.92373 10.6689,9.65168 10.6689,19.44908 z m -26.65251,13.04311 c -2.89737,1.75124 -6.32418,1.80952 -10.42944,1.80952 h -25.61335 v -19.51001 h 25.96188 c 3.67425,0 7.50813,0.16427 9.99843,1.58433 2.73507,1.27965 4.4272,4.00321 4.4272,7.76532 0,3.83895 -1.60965,6.92813 -4.34472,8.35084 z m 60.46631,51.13804 h -21.51339 v -87.83744 h 21.51339 z m 249.73948,0 h -29.87824 l -39.96447,-65.92709 v 65.92709 h -42.93898 l -8.20521,-19.59214 h -43.79835 l -7.96044,19.59214 h -24.6715 c -10.24853,0 -23.22415,-2.25727 -30.57265,-9.71527 -7.40969,-7.45799 -11.26486,-17.56006 -11.26486,-33.53316 0,-13.02698 2.30405,-24.93593 11.36597,-34.34652 6.81638,-7.01025 17.49061,-10.24249 32.01999,-10.24249 h 20.41192 v 18.82117 h -19.98356 c -7.69438,0 -12.03909,1.13924 -16.22418,5.20338 -3.59443,3.69853 -6.06078,10.69024 -6.06078,19.89682 0,9.41058 1.87836,16.19564 5.79739,20.62804 3.24589,3.47599 9.14439,4.53044 14.69434,4.53044 h 9.46898 l 29.71594,-69.0772 h 31.59165 l 35.69691,83.08181 v -83.08181 h 32.10247 l 37.0618,61.17411 v -61.17411 h 21.59586 z m -128.15805,-37.82149 -14.59058,-35.01681 -14.51077,35.01681 z"
               id="Path-2" />
            <path
               style="fill:#ffffff"
               inkscape:connector-curvature="0"
               d="m 749.95644,343.76716 c -5.12159,7.458 -15.1014,11.23866 -28.6118,11.23866 H 680.62723 V 336.1661 h 40.55246 c 4.02279,0 6.83767,-0.52723 8.53246,-2.17514 1.46864,-1.35913 2.49295,-3.33292 2.49295,-5.7306 0,-2.55929 -1.02431,-4.59137 -2.57543,-5.81008 -1.52983,-1.34059 -3.75673,-1.94995 -7.42832,-1.94995 -19.79733,-0.67028 -44.49543,0.60936 -44.49543,-27.19319 0,-12.74351 8.12539,-26.15731 30.25072,-26.15731 h 41.99715 l 0.003,-17.48058 h -39.02262 c -11.7757,0 -20.32944,2.80834 -26.38756,7.1745 v -7.1745 h -57.71582 c -9.22953,0 -20.06338,2.27846 -25.18765,7.1745 v -7.1745 H 498.57751 v 7.1745 c -8.20255,-5.89221 -22.04285,-7.1745 -28.43088,-7.1745 h -67.98297 v 7.1745 c -6.48914,-6.25782 -20.92009,-7.1745 -29.71594,-7.1745 H 296.3633 l -17.41078,18.76288 -16.30666,-18.76288 H 148.99149 v 122.59196 h 111.51527 l 17.94024,-19.05962 16.89997,19.05962 68.73857,0.0609 v -28.83847 h 6.75785 c 9.12045,0.14041 19.87715,-0.22519 29.3674,-4.31053 v 33.08541 h 56.69683 v -31.95148 h 2.73506 c 3.49068,0 3.83389,0.14307 3.83389,3.6164 v 28.33243 h 172.23487 c 10.93495,0 22.36477,-2.78714 28.69427,-7.8448 v 7.8448 h 54.63221 c 11.36864,0 22.47121,-1.58698 30.91852,-5.65112 v -22.83763 z m -341.50343,-47.1545 c 0,24.40606 -18.28612,29.44518 -36.71591,29.44518 h -26.30775 v 29.46901 h -40.9808 l -25.96188,-29.08486 -26.98087,29.08486 h -83.5154 v -87.85863 h 84.80046 l 25.94058,28.79872 26.81858,-28.79872 h 67.37104 c 16.73234,0 35.53195,4.61256 35.53195,28.94444 z m -167.6252,40.43389 H 188.9892 v -17.48059 h 46.28865 V 301.64028 H 188.9892 v -15.9731 h 52.86027 l 23.06185,25.60359 z m 83.52669,10.06013 -32.3712,-35.78778 32.3712,-34.6512 z m 47.8727,-39.06551 h -27.24693 v -22.37399 h 27.4917 c 7.61191,0 12.8958,3.08918 12.8958,10.77238 0,7.5984 -5.03912,11.60161 -13.14057,11.60161 z m 142.74333,-40.37302 h 70.36951 v 18.16949 h -49.37226 v 15.9731 h 48.16702 v 17.92568 h -48.16702 v 17.48059 l 49.37226,0.0794 v 18.23037 h -70.36951 z m -27.05329,47.02915 c 4.69325,1.72475 8.52979,4.81657 10.32835,7.37587 2.97717,4.28934 3.40819,8.29254 3.49332,16.03668 v 17.417 H 480.5714 v -10.99227 c 0,-5.2855 0.51083,-13.11176 -3.4082,-17.1971 -3.08094,-3.14746 -7.77685,-3.89988 -15.46857,-3.89988 h -22.5324 v 32.08925 h -21.18614 v -87.85863 h 48.67784 c 10.67423,0 18.44843,0.46894 25.36858,4.14627 6.65409,4.00321 10.83917,9.48742 10.83917,19.51001 -0.003,14.02315 -9.39449,21.17912 -14.94444,23.3728 z m -11.91825,-11.10708 c -2.8202,1.66646 -6.30822,1.80953 -10.41082,1.80953 h -25.61334 v -19.73257 h 25.96187 c 3.75407,0 7.5108,0.0794 10.06229,1.58698 2.73241,1.42271 4.366,4.14363 4.366,7.90309 0,3.75947 -1.63359,6.78771 -4.366,8.43297 z m 190.3364,5.59638 c 4.10528,4.23106 6.30556,9.5722 6.30556,18.61452 0,18.90066 -11.85817,27.72308 -33.12147,27.72308 h -41.06595 v -18.83971 h 40.901 c 3.99884,0 6.83501,-0.52723 8.61227,-2.17515 1.45001,-1.35913 2.49029,-3.33291 2.49029,-5.73059 0,-2.55931 -1.12542,-4.59137 -2.57276,-5.81009 -1.61232,-1.34059 -3.83655,-1.94994 -7.50814,-1.94994 -19.71751,-0.67029 -44.41029,0.60935 -44.41029,-27.19321 0,-12.7435 8.04025,-26.15729 30.14429,-26.15729 h 42.26853 v 18.6993 h -38.67676 c -3.83387,0 -6.32684,0.14307 -8.44732,1.58698 -2.30937,1.42271 -3.16608,3.53426 -3.16608,6.3214 0,3.31438 1.96085,5.569 4.61344,6.54397 2.22424,0.77097 4.61343,0.99616 8.2052,0.99616 l 11.35002,0.30468 c 11.44578,0.27818 19.30245,2.24932 24.07817,7.06589 z M 750,285.66718 h -38.42665 c -3.83655,0 -6.38538,0.14307 -8.53247,1.58698 -2.22423,1.42271 -3.08093,3.53427 -3.08093,6.32142 0,3.31436 1.87836,5.56898 4.61076,6.54395 2.22424,0.77097 4.61344,0.99617 8.12539,0.99617 l 11.42717,0.30468 c 11.53092,0.28349 19.22796,2.25727 23.92121,7.07119 0.85404,0.67029 1.36754,1.42271 1.95552,2.17513 z"
               id="path13-7" />
          </g>
        </g>
        <g
           transform="matrix(0.01429977,0,0,0.01429977,18.627028,114.96272)"
           style="fill:none;fill-rule:evenodd;stroke:none;stroke-width:1"
           id="Page-1-3">
          <g
             style="fill-rule:nonzero"
             id="visa">
            <rect
               style="fill:#0e4595"
               id="Rectangle-1"
               x="0"
               y="0"
               width="750"
               height="471"
               rx="40" />
            <polygon
               style="fill:#ffffff"
               id="Shape-6"
               points="364.9175,138.4655 331.5335,334.2275 278.1975,334.2275 311.5585,138.4655 " />
            <path
               style="fill:#ffffff"
               inkscape:connector-curvature="0"
               d="m 524.3075,142.6875 c -10.572,-3.966 -27.136,-8.222 -47.823,-8.222 -52.724,0 -89.864,26.551 -90.18,64.604 -0.297,28.129 26.514,43.821 46.754,53.185 20.769,9.595 27.752,15.715 27.653,24.283 -0.132,13.122 -16.586,19.117 -31.923,19.117 -21.357,0 -32.703,-2.967 -50.226,-10.276 l -6.876,-3.112 -7.489,43.824 c 12.463,5.464 35.509,10.199 59.438,10.444 56.089,0 92.501,-26.247 92.915,-66.882 0.201,-22.269 -14.015,-39.217 -44.799,-53.188 -18.651,-9.056 -30.073,-15.099 -29.952,-24.269 0,-8.137 9.668,-16.838 30.557,-16.838 17.449,-0.271 30.088,3.534 39.936,7.5 l 4.782,2.259 7.233,-42.429"
               id="path13" />
            <path
               style="fill:#ffffff"
               inkscape:connector-curvature="0"
               d="m 661.6145,138.4655 h -41.231 c -12.773,0 -22.331,3.486 -27.941,16.234 l -79.245,179.403 h 56.031 c 0,0 9.162,-24.122 11.234,-29.418 6.123,0 60.554,0.084 68.336,0.084 1.596,6.853 6.492,29.334 6.492,29.334 h 49.512 z m -65.417,126.407 c 4.413,-11.279 21.259,-54.723 21.259,-54.723 -0.315,0.521 4.38,-11.334 7.075,-18.684 l 3.607,16.878 c 0,0 10.217,46.729 12.352,56.528 h -44.293 z"
               id="Path" />
            <path
               inkscape:connector-curvature="0"
               d="m 45.878906,138.46484 -0.68164,4.07422 c 21.090997,5.10552 39.929199,12.49351 56.421874,21.68555 l 47.3457,169.69141 56.45508,-0.0664 84.00391,-195.38477 h -56.52149 l -52.24023,133.4961 -5.56641,-27.12891 c -0.25746,-0.82795 -0.53628,-1.65899 -0.82226,-2.49023 L 156.10742,154.9922 c -3.23,-12.396 -12.5985,-16.09535 -24.1875,-16.52735 z"
               id="path16"
               style="fill:#ffffff;fill-opacity:1" />
          </g>
        </g>
        <g
           transform="matrix(0.01430022,0,0,0.01430022,58.738995,114.96272)"
           style="fill:none;fill-rule:evenodd;stroke:none;stroke-width:1"
           id="Page-1-35">
          <g
             style="fill-rule:nonzero"
             id="discover">
            <path
               style="fill:#4d4d4d"
               inkscape:connector-curvature="0"
               d="M 52.877104,0 C 23.679389,0 0,23.154561 0,51.710259 V 419.28974 C 0,447.85083 23.671801,471 52.877104,471 H 697.12289 C 726.32061,471 750,447.84543 750,419.28974 V 252.4754 51.710259 C 750,23.149168 726.3282,0 697.12289,0 Z"
               id="Shape-62" />
            <path
               style="fill:#ffffff"
               inkscape:connector-curvature="0"
               d="m 314.56956,152.19841 c 8.49669,0 15.62302,1.73249 24.29575,5.91184 v 22.08695 c -8.21504,-7.63365 -15.34144,-10.82827 -24.76525,-10.82827 -18.52295,0 -33.09045,14.57561 -33.09045,33.05551 0,19.48756 14.11667,33.19581 34.00879,33.19581 8.9544,0 15.94873,-3.02912 23.84691,-10.54006 v 22.09831 c -8.98177,4.01946 -16.26073,5.60658 -24.76525,5.60658 -30.07486,0 -53.44426,-21.93538 -53.44426,-50.22413 0,-27.98385 23.99147,-50.36254 53.91376,-50.36254 z m -93.37816,0.60863 c 11.10165,0 21.26006,3.61176 29.75323,10.67279 l -10.33465,12.86082 c -5.14496,-5.48076 -10.01059,-7.79271 -15.92737,-7.79271 -8.51273,0 -14.71228,4.60629 -14.71228,10.66711 0,5.19817 3.48047,7.94937 15.33203,12.11757 22.46617,7.80841 29.1241,14.73225 29.1241,30.02185 0,18.63235 -14.39948,31.60125 -34.92338,31.60125 -15.02882,0 -25.95493,-5.62527 -35.05484,-18.31951 l 12.75729,-11.67959 c 4.54917,8.35872 12.13692,12.83618 21.55761,12.83618 8.81083,0 15.33392,-5.77838 15.33392,-13.57563 0,-4.04178 -1.97579,-7.50763 -5.92136,-9.95799 -1.98647,-1.16011 -5.92118,-2.8898 -13.65309,-5.48145 -18.54955,-6.34711 -24.91361,-13.13151 -24.91361,-26.39093 0,-15.75067 13.66698,-27.57976 31.5824,-27.57976 z m 225.69487,1.678 h 21.57452 l 27.00382,64.64538 27.35127,-64.64538 h 21.41113 l -43.74437,98.71337 h -10.62762 z m -382.065057,0.14788 h 28.990761 c 32.030416,0 54.358856,19.78568 54.358856,48.18969 0,14.16296 -6.83079,27.85678 -18.38192,36.94428 -9.71995,7.67083 -20.79472,11.11078 -36.129054,11.11078 H 64.821213 Z m 92.437277,0 h 19.75097 v 96.24475 h -19.75097 z m 395.89843,0 h 56.0115 v 16.30782 h -36.27555 v 21.36265 h 34.93841 v 16.30023 h -34.93841 v 25.9795 h 36.27555 v 16.29455 h -56.0115 z m 69.09368,0 h 29.28373 c 22.77912,0 35.83233,10.39709 35.83233,28.41592 0,14.73557 -8.18674,24.40601 -23.06378,27.28396 l 31.8735,40.54487 h -24.28824 l -27.33624,-38.664 h -2.57474 v 38.664 H 622.2506 Z m 19.72656,15.15882 v 29.14778 h 5.77111 c 12.61204,0 19.2965,-5.20511 19.2965,-14.8801 0,-9.36637 -6.68566,-14.26768 -18.98475,-14.26768 z m -557.419994,1.149 v 63.64238 h 5.29973 c 12.762644,0 20.822764,-2.32402 27.028244,-7.64861 6.83061,-5.78194 10.93938,-15.01409 10.93938,-24.25031 0,-9.22137 -4.10877,-18.17828 -10.93938,-23.96023 -6.52352,-5.6109 -14.2656,-7.78323 -27.028244,-7.78323 z"
               id="path10410" />
            <path
               style="fill:#f47216"
               inkscape:connector-curvature="0"
               d="m 399.16429,151.55942 c 29.75016,0 53.86681,22.16801 53.86681,49.55277 v 0.0312 c 0,27.38475 -24.11665,49.58397 -53.86681,49.58397 -29.75016,0 -53.86681,-22.19922 -53.86681,-49.58397 v -0.0312 c 0,-27.38476 24.11665,-49.55277 53.86681,-49.55277 z M 749.98261,271.09394 C 724.93465,288.32713 537.40856,411.49096 212.71924,470.98507 h 484.38627 c 29.19772,0 52.8771,-23.15457 52.8771,-51.71026 z"
               id="path10412" />
          </g>
        </g>
        <g
           transform="matrix(0.01429975,0,0,0.01429975,31.997689,114.96272)"
           style="fill:none;fill-rule:evenodd;stroke:none;stroke-width:1"
           id="Page-1-7">
          <g
             style="fill-rule:nonzero"
             id="mastercard">
            <rect
               style="fill:#000000"
               id="Rectangle-1-5"
               x="0"
               y="0"
               width="750"
               height="471"
               rx="40" />
            <path
               style="fill:#d9222a"
               inkscape:connector-curvature="0"
               d="m 434.00833,235.5 c 0,99.14167 -80.37083,179.50417 -179.50833,179.50417 -99.1375,0 -179.500003,-80.3625 -179.500003,-179.50417 0,-99.13333 80.362503,-179.504168 179.500003,-179.504168 99.1375,0 179.50833,80.370838 179.50833,179.504168"
               id="Fill-1" />
            <path
               style="fill:#ee9f2d"
               inkscape:connector-curvature="0"
               d="m 495.49167,55.995832 c -46.37917,0 -88.64167,17.595834 -120.5,46.466668 -6.4875,5.88333 -12.54584,12.2375 -18.125,18.99583 h 36.26666 c 4.95834,6.02917 9.525,12.37084 13.68334,19.0125 h -63.63334 c -3.8125,6.10417 -7.275,12.44584 -10.34166,19.00834 h 84.3125 c 2.87916,6.15833 5.42083,12.49583 7.6,19.00416 h -99.5125 c -2.075,6.19167 -3.82084,12.52917 -5.21667,19.00834 h 109.94167 c 2.6375,12.25 4.04166,24.96666 4.04166,38.00833 0,19.93333 -3.25416,39.1125 -9.25416,57.02083 h -99.5125 c 2.175,6.5125 4.71666,12.85417 7.59583,19.00834 h 84.31667 c -3.075,6.5625 -6.52917,12.90416 -10.34584,19.0125 h -63.625 c 4.15417,6.62916 8.72917,12.97916 13.68334,18.99583 H 393.125 c -5.57083,6.77083 -11.63333,13.13333 -18.12917,19.0125 31.85834,28.86667 74.11667,46.45417 120.49584,46.45417 C 594.62917,415.00417 675,334.64167 675,235.5 675,136.37083 594.62917,55.995832 495.49167,55.995832"
               id="Fill-2" />
            <path
               style="fill:#000000"
               inkscape:connector-curvature="0"
               d="m 651.075,335.55833 c 0,-3.2 2.59167,-5.8 5.79584,-5.8 3.20416,0 5.79583,2.6 5.79583,5.8 0,3.2 -2.59167,5.8 -5.79583,5.8 -3.20417,0 -5.79584,-2.6 -5.79584,-5.8 z m 5.79584,4.40834 c 2.43333,0 4.40833,-1.975 4.40833,-4.40834 0,-2.4375 -1.975,-4.40416 -4.40833,-4.40416 -2.4375,0 -4.40417,1.96666 -4.40417,4.40416 0,2.43334 1.96667,4.40834 4.40417,4.40834 z m -0.78334,-1.85834 H 654.9 v -5.09583 h 2.15 c 0.45,0 0.90834,0 1.30417,0.25417 0.4125,0.27916 0.64583,0.77083 0.64583,1.27916 0,0.57084 -0.3375,1.10417 -0.88333,1.3125 l 0.9375,2.25 h -1.31667 l -0.77916,-2.01666 h -0.87084 z m 0,-2.89166 h 0.65834 c 0.24583,0 0.50416,0.0208 0.72499,-0.1 0.19584,-0.125 0.29584,-0.35834 0.29584,-0.58333 0,-0.19584 -0.12083,-0.42084 -0.2875,-0.51667 -0.20833,-0.12917 -0.5375,-0.1 -0.75834,-0.1 h -0.63333 z"
               id="Fill-3" />
            <path
               style="fill:#000000"
               inkscape:connector-curvature="0"
               d="m 212.5875,255.15417 c -2.04584,-0.2375 -2.94584,-0.3 -4.35,-0.3 -11.04584,0 -16.6375,3.7875 -16.6375,11.26666 0,4.6125 2.72916,7.54584 6.9875,7.54584 7.9375,0 13.65833,-7.55834 14,-18.5125 z M 226.75833,288.15 H 210.6125 l 0.37083,-7.675 c -4.925,6.06667 -11.49583,8.95 -20.425,8.95 -10.5625,0 -17.80417,-8.25 -17.80417,-20.22917 0,-18.025 12.59584,-28.54166 34.21667,-28.54166 2.20833,0 5.04167,0.2 7.94167,0.57083 0.60416,-2.44167 0.7625,-3.4875 0.7625,-4.8 0,-4.90833 -3.39584,-6.7375 -12.5,-6.7375 -9.53334,-0.10833 -17.39584,2.27083 -20.625,3.33333 0.20416,-1.22916 2.7,-16.65833 2.7,-16.65833 9.7125,-2.84583 16.11666,-3.91667 23.325,-3.91667 16.73333,0 25.59583,7.5125 25.57916,21.7125 0.0333,3.80417 -0.59583,8.5 -1.57916,14.67084 -1.69167,10.72916 -5.32084,33.71666 -5.81667,39.32083 z"
               id="Fill-4" />
            <polyline
               style="fill:#000000"
               id="Fill-5"
               points="164.599998 288.150001 145.112498 288.150001 156.274998 218.154167 131.349998 288.150001 118.070831 288.150001 116.429164 218.554167 104.695831 288.150001 86.4541641 288.150001 101.691664 197.095833 129.712498 197.095833 131.412498 248.062501 148.504165 197.095833 179.670832 197.095833 164.599998 288.150001" />
            <path
               style="fill:#000000"
               inkscape:connector-curvature="0"
               d="m 519.575,255.15417 c -2.0375,-0.2375 -2.94167,-0.3 -4.34167,-0.3 -11.04166,0 -16.63333,3.7875 -16.63333,11.26666 0,4.6125 2.725,7.54584 6.98333,7.54584 7.9375,0 13.6625,-7.55834 13.99167,-18.5125 z M 533.75833,288.15 H 517.6125 l 0.36667,-7.675 c -4.925,6.06667 -11.5,8.95 -20.42084,8.95 -10.56666,0 -17.8,-8.25 -17.8,-20.22917 0,-18.025 12.5875,-28.54166 34.2125,-28.54166 2.20834,0 5.0375,0.2 7.93334,0.57083 0.60416,-2.44167 0.7625,-3.4875 0.7625,-4.8 0,-4.90833 -3.39167,-6.7375 -12.49584,-6.7375 -9.53333,-0.10833 -17.3875,2.27083 -20.62916,3.33333 0.20416,-1.22916 2.70833,-16.65833 2.70833,-16.65833 9.7125,-2.84583 16.1125,-3.91667 23.3125,-3.91667 16.74167,0 25.60417,7.5125 25.5875,21.7125 0.0333,3.80417 -0.59583,8.5 -1.57917,14.67084 -1.68333,10.72916 -5.32083,33.71666 -5.8125,39.32083 z"
               id="Fill-6" />
            <path
               style="fill:#000000"
               inkscape:connector-curvature="0"
               d="m 313.36667,287.025 c -5.33334,1.67917 -9.49167,2.4 -14,2.4 -9.9625,0 -15.4,-5.725 -15.4,-16.26667 -0.14167,-3.27083 1.43333,-11.87916 2.67083,-19.7375 1.125,-6.91666 8.45,-50.52916 8.45,-50.52916 h 19.37083 L 312.19583,214.1 h 11.7 l -2.64166,17.79583 H 309.5125 c -2.25,14.08334 -5.45417,31.625 -5.49167,33.95 0,3.81667 2.0375,5.48334 6.67084,5.48334 2.22083,0 3.94166,-0.225 5.25416,-0.7 l -2.57916,16.39583"
               id="Fill-7" />
            <path
               style="fill:#000000"
               inkscape:connector-curvature="0"
               d="m 372.75833,286.425 c -6.65416,2.03333 -13.075,3.01667 -19.87916,3 -21.68334,-0.0208 -32.9875,-11.34583 -32.9875,-33.03333 0,-25.3125 14.37916,-43.94584 33.9,-43.94584 15.97083,0 26.17083,10.43334 26.17083,26.79584 0,5.42916 -0.7,10.72916 -2.3875,18.2125 H 339 c -1.30417,10.74166 5.57083,15.21666 16.8375,15.21666 6.93333,0 13.1875,-1.42916 20.14167,-4.6625 z m -10.8875,-43.9 c 0.10834,-1.54167 2.05417,-13.21667 -9.0125,-13.21667 -6.17083,0 -10.58333,4.70417 -12.37916,13.21667 z"
               id="Fill-8" />
            <path
               style="fill:#000000"
               inkscape:connector-curvature="0"
               d="m 238.44583,237.50833 c 0,9.36667 4.54167,15.825 14.84167,20.675 7.89167,3.70834 9.1125,4.80834 9.1125,8.17084 0,4.61666 -3.47917,6.7 -11.19167,6.7 -5.8125,0 -11.22083,-0.90834 -17.45833,-2.92084 0,0 -2.5625,16.32084 -2.67917,17.1 4.42917,0.96667 8.37917,1.8625 20.27917,2.19167 20.5625,0 30.05833,-7.82917 30.05833,-24.75 0,-10.175 -3.975,-16.14583 -13.7375,-20.63333 -8.17083,-3.75 -9.10833,-4.5875 -9.10833,-8.04584 0,-4.00416 3.2375,-6.04583 9.5375,-6.04583 3.825,0 9.05,0.40833 14,1.1125 l 2.775,-17.175 c -5.04583,-0.8 -12.69583,-1.44167 -17.15,-1.44167 -21.8,0 -29.34584,11.3875 -29.27917,25.0625"
               id="Fill-9" />
            <path
               style="fill:#000000"
               inkscape:connector-curvature="0"
               d="m 467.53333,214.39167 c 5.4125,0 10.45834,1.42083 17.4125,4.92083 l 3.1875,-19.7625 c -2.85416,-1.12083 -12.90416,-7.7 -21.41666,-7.7 -13.04167,0 -24.06667,6.47083 -31.82084,17.15 -11.30833,-3.74583 -15.95833,3.825 -21.65833,11.36667 l -5.0625,1.17916 c 0.38333,-2.48333 0.72917,-4.95 0.6125,-7.44583 h -17.89583 c -2.44584,22.91667 -6.77917,46.12917 -10.17084,69.075 l -0.88333,4.975 h 19.49583 c 3.25417,-21.14167 5.0375,-34.67917 6.12084,-43.84167 l 7.34166,-4.08333 c 1.09584,-4.07917 4.52917,-5.45833 11.41667,-5.29167 -0.9,4.83334 -1.38333,9.91667 -1.38333,15.18334 0,24.225 13.07083,39.30833 34.05,39.30833 5.40416,0 10.04166,-0.7125 17.22083,-2.65833 l 3.42917,-20.75834 c -6.45834,3.17917 -11.75834,4.675 -16.55834,4.675 -11.32916,0 -18.18333,-8.3625 -18.18333,-22.18333 0,-20.05 10.19583,-34.10833 24.74583,-34.10833"
               id="Fill-10" />
            <polyline
               style="fill:#ffffff"
               id="Fill-12"
               points="170.208331 282.741668 150.716665 282.741668 161.887498 212.754167 136.962498 282.741668 123.679164 282.741668 122.037498 213.154167 110.304164 282.741668 92.0624975 282.741668 107.299998 191.7 135.320831 191.7 136.108331 248.062501 155.012498 191.7 185.279165 191.7 170.208331 282.741668" />
            <path
               style="fill:#000000"
               inkscape:connector-curvature="0"
               d="M 632.52084,197.09583 628.2,223.40417 c -5.32916,-7.0125 -11.05416,-12.0875 -18.6125,-12.0875 -9.83333,0 -18.78333,7.45416 -24.64167,18.425 C 576.7875,228.05 568.35,225.17917 568.35,225.17917 l -0.004,0.0667 c 0.65834,-6.13333 0.92084,-9.875 0.86251,-11.14583 H 551.3085 c -2.4375,22.91667 -6.77083,46.12917 -10.15833,69.075 l -0.89167,4.975 H 559.75 c 2.63333,-17.09583 4.65,-31.29167 6.13333,-42.55 6.65834,-6.01667 9.99167,-11.26667 16.72084,-10.91667 -2.97917,7.20417 -4.725,15.50417 -4.725,24.01667 0,18.5125 9.36667,30.725 23.53333,30.725 7.14167,0 12.62083,-2.4625 17.96667,-8.17083 l -0.9125,6.88333 H 636.9 l 14.84167,-91.04167 z M 608.15,271.0375 c -6.63333,0 -9.98333,-4.90833 -9.98333,-14.59583 0,-14.55417 6.27083,-24.875 15.1125,-24.875 6.69583,0 10.32083,5.10416 10.32083,14.50833 0,14.67917 -6.37083,24.9625 -15.45,24.9625 z"
               id="Fill-11" />
            <path
               style="fill:#ffffff"
               inkscape:connector-curvature="0"
               d="m 218.19166,249.75833 c -2.04166,-0.2375 -2.94583,-0.3 -4.34583,-0.3 -11.04583,0 -16.63333,3.7875 -16.63333,11.26667 0,4.60417 2.72916,7.54583 6.97916,7.54583 7.94584,0 13.66667,-7.55833 14,-18.5125 z m 14.17917,32.98334 H 216.225 l 0.36666,-7.6625 c -4.92083,6.05416 -11.5,8.95 -20.42083,8.95 -10.56667,0 -17.80417,-8.25 -17.80417,-20.22917 0,-18.03333 12.59167,-28.54167 34.21667,-28.54167 2.20833,0 5.04167,0.2 7.9375,0.57084 0.60417,-2.44167 0.7625,-3.4875 0.7625,-4.80834 0,-4.90833 -3.39167,-6.72916 -12.49583,-6.72916 -9.5375,-0.10834 -17.39584,2.27083 -20.62917,3.32083 0.20417,-1.225 2.7,-16.6375 2.7,-16.6375 9.70833,-2.85833 16.12083,-3.92917 23.32083,-3.92917 16.7375,0 25.60417,7.51667 25.5875,21.70417 0.0292,3.82083 -0.60416,8.5125 -1.58333,14.675 -1.6875,10.725 -5.32083,33.725 -5.8125,39.31667 z"
               id="Fill-13" />
            <path
               style="fill:#ffffff"
               inkscape:connector-curvature="0"
               d="m 493.74583,194.15 -3.19166,19.76667 c -6.95,-3.49584 -12,-4.92084 -17.40834,-4.92084 -14.55,0 -24.75,14.05834 -24.75,34.10834 0,13.82083 6.85834,22.17916 18.18334,22.17916 4.8,0 10.09583,-1.49166 16.55416,-4.675 l -3.42083,20.75 c -7.18333,1.95834 -11.81667,2.67084 -17.225,2.67084 -20.975,0 -34.05,-15.08334 -34.05,-39.30834 0,-32.55 18.05833,-55.3 43.8875,-55.3 8.50833,0 18.5625,3.60834 21.42083,4.72917"
               id="Fill-14" />
            <path
               style="fill:#ffffff"
               inkscape:connector-curvature="0"
               d="m 525.1875,249.75833 c -2.04167,-0.2375 -2.94167,-0.3 -4.34583,-0.3 -11.04167,0 -16.63334,3.7875 -16.63334,11.26667 0,4.60417 2.72917,7.54583 6.98334,7.54583 7.9375,0 13.6625,-7.55833 13.99583,-18.5125 z m 14.17917,32.98334 h -16.15 l 0.37083,-7.6625 c -4.925,6.05416 -11.5,8.95 -20.42083,8.95 -10.5625,0 -17.80417,-8.25 -17.80417,-20.22917 0,-18.03333 12.59583,-28.54167 34.2125,-28.54167 2.2125,0 5.04167,0.2 7.94167,0.57084 0.6,-2.44167 0.7625,-3.4875 0.7625,-4.80834 0,-4.90833 -3.39167,-6.72916 -12.49584,-6.72916 -9.53333,-0.10834 -17.39583,2.27083 -20.62916,3.32083 0.20416,-1.225 2.70416,-16.6375 2.70416,-16.6375 9.70834,-2.85833 16.11667,-3.92917 23.31667,-3.92917 16.74167,0 25.60417,7.51667 25.58333,21.70417 0.0333,3.82083 -0.59583,8.5125 -1.57916,14.675 -1.68334,10.725 -5.325,33.725 -5.8125,39.31667 z"
               id="Fill-15" />
            <path
               style="fill:#ffffff"
               inkscape:connector-curvature="0"
               d="m 318.975,281.62083 c -5.3375,1.67917 -9.49583,2.40834 -14,2.40834 -9.9625,0 -15.4,-5.725 -15.4,-16.26667 -0.1375,-3.27917 1.4375,-11.87917 2.675,-19.7375 1.12083,-6.925 8.44583,-50.53333 8.44583,-50.53333 h 19.36667 l -2.25833,11.2125 h 9.94166 L 325.1,226.49167 h -9.975 c -2.25,14.09166 -5.4625,31.62083 -5.49583,33.95 0,3.82916 2.04166,5.48333 6.67083,5.48333 2.22083,0 3.9375,-0.21667 5.25417,-0.69167 l -2.57917,16.3875"
               id="Fill-16" />
            <path
               style="fill:#ffffff"
               inkscape:connector-curvature="0"
               d="m 378.36667,281.02917 c -6.65,2.03333 -13.07917,3.0125 -19.87917,3 -21.68333,-0.0208 -32.9875,-11.34584 -32.9875,-33.03334 0,-25.32083 14.37917,-43.95 33.9,-43.95 15.97083,0 26.17083,10.42917 26.17083,26.8 0,5.43334 -0.7,10.73334 -2.38333,18.2125 h -38.575 c -1.30417,10.74167 5.57083,15.22084 16.8375,15.22084 6.92917,0 13.1875,-1.43334 20.1375,-4.675 z M 367.475,237.11667 c 0.11667,-1.5375 2.05833,-13.21667 -9.0125,-13.21667 -6.16667,0 -10.57917,4.71667 -12.375,13.21667 z"
               id="Fill-17" />
            <path
               style="fill:#ffffff"
               inkscape:connector-curvature="0"
               d="m 244.05416,232.1125 c 0,9.36667 4.54167,15.81667 14.84167,20.675 7.89167,3.70833 9.1125,4.8125 9.1125,8.17083 0,4.61667 -3.48333,6.7 -11.1875,6.7 -5.81667,0 -11.225,-0.90833 -17.46667,-2.92083 0,0 -2.55416,16.32083 -2.67083,17.1 4.42083,0.96667 8.375,1.85 20.275,2.19167 20.56667,0 30.05834,-7.82917 30.05834,-24.74584 0,-10.17916 -3.97084,-16.15 -13.7375,-20.6375 -8.16667,-3.75833 -9.1125,-4.58333 -9.1125,-8.04583 0,-4 3.24583,-6.05833 9.54166,-6.05833 3.82084,0 9.04584,0.42083 14.00417,1.125 l 2.77083,-17.17917 c -5.04166,-0.8 -12.69166,-1.44167 -17.14583,-1.44167 -21.80417,0 -29.34584,11.37917 -29.28334,25.06667"
               id="Fill-18" />
            <path
               style="fill:#ffffff"
               inkscape:connector-curvature="0"
               d="m 642.50833,282.74167 h -18.4375 L 624.9875,275.85 c -5.34583,5.71667 -10.825,8.17917 -17.96666,8.17917 -14.16667,0 -23.52917,-12.2125 -23.52917,-30.725 0,-24.62917 14.52083,-45.39167 31.70833,-45.39167 7.55833,0 13.27917,3.0875 18.60417,10.09583 L 638.12917,191.7 H 657.35 Z M 613.7625,265.63333 c 9.075,0 15.45,-10.28333 15.45,-24.95416 0,-9.40417 -3.62916,-14.50834 -10.325,-14.50834 -8.8375,0 -15.11666,10.31667 -15.11666,24.875 0,9.6875 3.35833,14.5875 9.99166,14.5875 z"
               id="Fill-19" />
            <path
               style="fill:#ffffff"
               inkscape:connector-curvature="0"
               d="m 556.92083,208.70417 c -2.44166,22.91666 -6.775,46.12916 -10.1625,69.0625 l -0.89166,4.975 h 19.49166 c 6.97084,-45.275 8.65834,-54.11667 19.5875,-53.00834 1.74167,-9.26666 4.98334,-17.38333 7.4,-21.47916 -8.16249,-1.7 -12.72083,2.9125 -18.6875,11.675 0.47084,-3.7875 1.33334,-7.46667 1.1625,-11.225 h -17.9"
               id="Fill-20" />
            <path
               style="fill:#ffffff"
               inkscape:connector-curvature="0"
               d="m 396.5,208.70417 c -2.44583,22.91666 -6.77917,46.12916 -10.16667,69.0625 l -0.8875,4.975 h 19.5 c 6.9625,-45.275 8.64584,-54.11667 19.57084,-53.00834 1.75,-9.26666 4.99166,-17.38333 7.4,-21.47916 -8.15417,-1.7 -12.71667,2.9125 -18.67917,11.675 0.47083,-3.7875 1.325,-7.46667 1.1625,-11.225 h -17.9"
               id="Fill-21" />
            <path
               style="fill:#ffffff"
               inkscape:connector-curvature="0"
               d="m 651.06667,276.94583 c 0,-3.2125 2.59583,-5.8 5.79583,-5.8 3.20417,0 5.79583,2.5875 5.79583,5.8 0,3.19584 -2.59166,5.79584 -5.79583,5.79584 -3.2,0 -5.79583,-2.6 -5.79583,-5.79584 z m 5.79583,4.40417 c 2.4375,0 4.40417,-1.975 4.40417,-4.40417 0,-2.43333 -1.96667,-4.40833 -4.40417,-4.40833 -2.43333,0 -4.40833,1.975 -4.40833,4.40833 0,2.42917 1.975,4.40417 4.40833,4.40417 z m -0.78333,-1.87083 h -1.1875 v -5.08334 h 2.15416 c 0.44584,0 0.90834,0.008 1.29584,0.25417 0.41666,0.28333 0.65417,0.76667 0.65417,1.275 0,0.575 -0.33751,1.1125 -0.88751,1.31667 l 0.94167,2.2375 h -1.32083 L 656.95,277.47083 h -0.87083 z m 0,-2.87917 h 0.65416 c 0.24584,0 0.51251,0.0167 0.72917,-0.1 0.19583,-0.125 0.29583,-0.3625 0.29583,-0.5875 0,-0.1875 -0.11666,-0.4125 -0.2875,-0.525 -0.20416,-0.11667 -0.54166,-0.0833 -0.76249,-0.0833 h -0.62917 z"
               id="Fill-22" />
          </g>
        </g>
      </g>
    </g>
    <g
       id="g10860"
       style="fill:none;fill-rule:evenodd"
       transform="matrix(0.07599648,0,0,0.07599648,141.61656,74.069395)">
      <rect
         id="rect10846"
         rx="40"
         height="471"
         width="750"
         x="0"
         y="0"
         style="fill:#ffffff" />
      <path
         id="path10848"
         d="m 99.460353,243.3494 c -4.801067,0.59998 -13.202933,2.39993 -18.004,6.59981 -14.4032,12.59963 -6.001333,34.79899 23.405197,34.79899 16.80374,0 33.60747,-10.79969 46.8104,-27.5992 -19.20426,-8.99974 -34.80773,-15.59955 -52.211597,-13.7996 z"
         inkscape:connector-curvature="0"
         style="fill:#2ba6df" />
      <path
         id="path10850"
         d="m 207.034,258.79665 c 27.006,8.99974 33.00733,9.59972 33.00733,9.59972 V 172.39915 C 240.04133,156.19962 226.8384,143 210.03467,143 H 84.006667 C 67.803067,143 54,156.19962 54,172.39915 v 125.99636 c 0,16.19953 13.202933,29.39915 30.006667,29.39915 H 210.03467 c 16.2036,0 30.00666,-13.19962 30.00666,-29.39915 v -1.19997 c 0,0 -48.01066,-19.79943 -72.61613,-31.79908 -16.2036,19.79943 -37.20827,32.39906 -59.4132,32.39906 -37.208267,0 -49.811067,-32.39906 -31.807067,-53.39845 3.6008,-4.79986 10.202267,-8.99974 20.404534,-11.39967 15.603463,-3.5999 40.809063,2.39993 64.214263,10.1997 4.20094,-7.79977 7.80174,-16.19953 10.20227,-25.19927 H 98.409867 v -7.19979 H 135.61813 V 196.39846 H 90.008 v -7.1998 h 45.61013 V 170.5992 c 0,0 0,-2.99991 3.00067,-2.99991 h 18.004 v 22.19936 h 45.01 v 6.59981 h -45.01 v 13.19961 h 36.60813 c -3.6008,14.39959 -9.002,27.59921 -15.60346,38.99888 12.00266,4.19988 22.20493,7.79977 29.40653,10.1997 z"
         inkscape:connector-curvature="0"
         style="fill:#2ba6df" />
      <path
         id="path10852"
         d="m 325.68893,186.61253 39.6088,85.79752 h -21.00466 l -10.8024,-22.79934 h -32.4072 l -10.8024,22.79934 H 276.478 l 40.20893,-83.39759 c 0,0 1.20027,-2.39993 3.6008,-2.39993 1.8004,0 5.4012,0 5.4012,0 z m -21.00466,55.19841 h 25.2056 l -12.6028,-26.99922 z m 87.448,31.28185 H 372.928 v -81.59764 c 0,-2.39993 1.20027,-3.5999 4.20093,-3.5999 h 15.00334 z m 36.008,-0.5586 H 408.936 v -61.79822 c 0,-2.39993 1.20027,-3.59989 4.20093,-3.59989 h 15.00334 z m 23.48166,-64.11539 h 12.6028 v 5.99982 c 2.40054,-1.79994 4.80107,-3.59989 7.80174,-4.19987 3.00066,-1.19997 6.00133,-1.79995 10.20226,-1.79995 4.20094,0 7.80174,0.59998 10.8024,2.39993 3.6008,1.79995 6.00134,3.59989 8.40187,6.59981 2.40053,2.99991 4.20093,5.99982 5.4012,9.59972 1.20027,3.5999 1.8004,7.19979 1.8004,11.39967 0,5.39984 -0.60013,10.19971 -2.40053,14.39958 -1.8004,4.19988 -3.6008,8.39976 -6.60147,11.39968 -3.00067,2.99991 -6.00133,5.99982 -10.20227,7.79977 -4.20093,1.79995 -8.40186,2.39993 -13.20293,2.39993 h -6.60147 c -1.8004,0 -3.6008,-0.59998 -5.4012,-1.19996 v 21.59937 h -19.20426 v -78.59773 c -0.60014,-7.79977 2.40053,-7.79977 6.60146,-7.79977 z m 12.6028,46.79865 c 0,1.79994 0,2.99991 0.60014,4.19987 0.60013,1.19997 1.20026,2.39993 2.40053,3.5999 1.20027,1.19997 2.40053,1.79995 3.6008,2.39993 1.20027,0.59998 3.00067,0.59998 4.80107,0.59998 1.8004,0 3.00066,-0.59998 4.80106,-1.79994 1.20027,-1.19997 3.00067,-2.39994 3.6008,-4.79987 0.60014,-2.39993 1.8004,-4.19987 2.40054,-7.19979 0.60013,-2.99991 1.20026,-5.39984 1.20026,-8.99974 0,-4.19988 0,-7.79977 -0.60013,-10.79969 -0.60013,-2.99991 -1.20027,-5.39984 -2.40053,-7.79977 -1.20027,-1.79995 -2.40054,-3.5999 -3.6008,-4.79986 -1.20027,-1.19997 -3.00067,-1.79995 -4.80107,-1.79995 -1.20027,0 -2.40053,0 -3.6008,0.59998 -1.20027,0.59999 -2.40053,1.19997 -3.00067,1.79995 -1.20026,0.59998 -1.8004,1.79995 -3.00066,2.39993 -1.20027,1.19997 -1.8004,1.79995 -2.40054,2.99992 z M 545.252,208.4188 c 4.80107,0 8.40187,0.59998 12.00267,1.19996 3.00066,0.59999 6.00133,1.79995 8.40186,3.5999 2.40054,1.79995 3.6008,3.5999 4.80107,5.39984 1.20027,2.39993 1.8004,4.79986 1.8004,7.1998 v 47.39863 h -19.20427 v -4.79987 c -1.20026,1.19997 -2.40053,1.79995 -3.00066,2.39994 -1.20027,0.59998 -2.40054,1.19996 -3.6008,1.79994 -1.20027,0.59999 -2.40054,1.19997 -4.20094,1.19997 -1.8004,0.59998 -3.6008,0.59998 -5.4012,0.59998 -3.00066,0 -5.4012,-0.59998 -7.80173,-1.19996 -2.40053,-0.59999 -4.20093,-1.79995 -6.00133,-3.5999 -1.8004,-1.19997 -3.00067,-2.99991 -3.6008,-5.39984 -0.60014,-1.79995 -1.20027,-4.19988 -1.20027,-6.59981 0,-2.39993 0.60013,-4.79987 1.20027,-6.59981 0.60013,-1.79995 2.40053,-3.5999 3.6008,-5.39985 1.20026,-1.79995 3.6008,-2.99991 5.4012,-4.19988 2.40053,-1.19996 4.20093,-2.39993 7.2016,-3.59989 2.40053,-1.19997 4.80106,-1.79995 7.80173,-2.99991 2.40053,-0.59999 5.4012,-1.79995 7.80173,-2.39994 l 2.40054,-0.59998 v -6.59981 c 0,-1.79995 0,-3.59989 -0.60014,-5.39984 -0.60013,-1.19997 -1.20026,-2.39993 -1.8004,-3.5999 -0.60013,-0.59998 -1.8004,-1.79995 -2.40053,-1.79995 -1.20027,-0.59998 -2.40053,-0.59998 -3.6008,-0.59998 0,0 -10.20227,0 -19.20427,7.79978 l -4.20093,-6.59981 c -1.8004,1.19996 9.002,-6.59981 23.4052,-6.59981 z m 6.60147,31.79908 c -1.8004,0.59998 -3.6008,1.79995 -5.4012,2.99991 -1.8004,1.19997 -3.6008,2.39993 -5.4012,3.5999 -1.8004,1.19996 -3.00067,2.39993 -3.6008,4.19988 -1.20027,1.19996 -1.20027,2.99991 -1.20027,4.19988 0,1.19996 0,2.39993 0.60013,3.59989 0.60014,1.19997 0.60014,1.79995 1.20027,2.99991 0.60013,1.19997 1.20027,1.19997 1.8004,1.79995 0.60013,0.59999 1.20027,0.59999 2.40053,0.59999 1.8004,0 3.00067,-0.59999 4.80107,-1.19997 1.8004,-1.19997 3.6008,-2.39993 5.4012,-3.5999 v -19.19944 z m 46.5532,53.99844 h -12.6028 l -0.60014,-11.39967 c 0,0 15.60347,0.59998 20.40454,-5.39985 1.8004,-2.39993 3.00066,-8.99974 3.00066,-8.99974 L 577.402,208.4188 h 21.00467 l 19.8044,38.99887 17.40386,-38.99887 H 649.418 l -31.80707,70.79795 c -1.20026,2.39993 -6.00133,14.99957 -19.20426,14.99957 z"
         inkscape:connector-curvature="0"
         style="fill:#3f3a39" />
      <ellipse
         id="ellipse10854"
         ry="8.5"
         rx="9.6020002"
         cy="189.5"
         cx="418.60199"
         style="fill:#2ba6df" />
      <path
         id="path10856"
         d="m 668.879,158.31 h -6.601 v -1.2 h 14.403 v 1.2 h -6.601 v 18.599 h -1.801 V 158.31 Z"
         inkscape:connector-curvature="0"
         style="fill:#3f3a39" />
      <path
         id="path10858"
         d="m 679.59613,157.10994 h 2.40054 l 4.20093,11.39967 1.8004,4.19988 v 0 c 0.60013,-1.19997 1.20027,-2.99992 1.8004,-4.19988 l 4.20093,-11.39967 h 2.40054 v 20.39941 h -2.40054 v -12.59964 -5.39984 0 l -1.8004,4.79986 -4.20093,11.99965 h -1.20027 l -4.20093,-11.99965 -1.8004,-4.79986 v 0 5.39984 12.59964 h -1.8004 v -20.39941 z"
         inkscape:connector-curvature="0"
         style="fill:#3f3a39" />
    </g>
    <path
       id="path14958"
       d="m 78.577902,147.04259 0.210946,4.1e-4 c 0.05715,4e-4 0.11429,9.2e-4 0.171751,0.002 0.09995,0.003 0.216878,0.008 0.325867,0.0277 0.09474,0.0171 0.174195,0.043 0.250448,0.0818 0.07528,0.0383 0.14425,0.0884 0.204472,0.14852 0.06045,0.0605 0.110643,0.12962 0.149399,0.20574 0.0386,0.0757 0.06438,0.15473 0.08135,0.25017 0.01948,0.1078 0.02488,0.22504 0.02761,0.32561 0.0015,0.0568 0.0023,0.11353 0.0026,0.17165 5.08e-4,0.0703 5.08e-4,0.14053 5.08e-4,0.21094 v 9.63148 c 0,0.0704 1.1e-5,0.14053 -5.08e-4,0.21232 -2.51e-4,0.0567 -9.28e-4,0.11352 -0.0026,0.17039 -0.0027,0.10041 -0.0081,0.2176 -0.02785,0.32667 -0.01672,0.0941 -0.04248,0.17322 -0.08131,0.24925 -0.03865,0.0759 -0.08876,0.14493 -0.148946,0.20509 -0.06056,0.0606 -0.129307,0.11056 -0.205481,0.14916 -0.07568,0.0386 -0.155004,0.0646 -0.248809,0.0814 -0.111197,0.0198 -0.23302,0.0253 -0.324768,0.0278 -0.05772,0.001 -0.115173,0.002 -0.17402,0.002 -0.07013,4.6e-4 -0.140513,4.6e-4 -0.210657,4.6e-4 h -57.152946 -0.0028 c -0.06933,0 -0.13881,0 -0.209408,-4.6e-4 -0.05756,-2.5e-4 -0.114995,-9.2e-4 -0.170524,-0.002 -0.09384,-0.002 -0.215743,-0.008 -0.326031,-0.0277 -0.09461,-0.017 -0.173931,-0.0429 -0.250612,-0.082 -0.07545,-0.0383 -0.144148,-0.0882 -0.204738,-0.14888 -0.06012,-0.06 -0.110087,-0.12883 -0.148717,-0.20487 -0.03867,-0.076 -0.06454,-0.15529 -0.08155,-0.25054 -0.01967,-0.10886 -0.02506,-0.22557 -0.02777,-0.3253 -0.0015,-0.0571 -0.0022,-0.1142 -0.0025,-0.17097 l -3.2e-4,-0.16759 1.2e-5,-0.0443 v -9.63149 l -1.2e-5,-0.0443 2.65e-4,-0.16723 c 3.79e-4,-0.0571 9.28e-4,-0.11421 0.0026,-0.17126 0.0027,-0.0998 0.0081,-0.2166 0.02792,-0.32637 0.01686,-0.0944 0.04272,-0.17372 0.08159,-0.25006 0.03833,-0.0755 0.08838,-0.14434 0.148819,-0.20476 0.06019,-0.0602 0.129116,-0.11029 0.205052,-0.14891 0.07586,-0.0386 0.15533,-0.0646 0.249944,-0.0816 0.109014,-0.0196 0.226016,-0.025 0.32622,-0.0277 0.05712,-0.001 0.114239,-0.002 0.170929,-0.002 l 0.211653,-4.1e-4 h 57.152938"
       inkscape:connector-curvature="0"
       style="opacity:0.98000004;fill:#ffffff;stroke-width:0.12620234"
       sodipodi:nodetypes="ccccccccccsscccccccccscscccccccccccccccccccccccc" />
    <g
       id="g14956"
       transform="matrix(0.16018348,0,0,0.16018348,-7.8762045,124.80265)">
      <path
         id="path14915"
         d="m 232.0003,179.34891 c -1.27028,0.15875 -3.49327,0.63499 -4.76356,1.7462 -3.81084,3.33366 -1.58785,9.20724 6.19263,9.20724 4.44599,0 8.89197,-2.85742 12.38525,-7.30229 -5.08113,-2.38118 -9.20955,-4.12738 -13.81432,-3.65115 z"
         inkscape:connector-curvature="0"
         style="fill:#2ba6df;fill-rule:evenodd;stroke-width:0.26458332" />
      <path
         id="path14917"
         d="m 260.4625,183.436 c 7.14533,2.38118 8.73318,2.53993 8.73318,2.53993 v -25.39927 c 0,-4.28612 -3.49327,-7.77852 -7.93926,-7.77852 h -33.34491 c -4.2872,0 -7.93926,3.4924 -7.93926,7.77852 v 33.33654 c 0,4.28612 3.49328,7.77852 7.93926,7.77852 h 33.34491 c 4.2872,0 7.93926,-3.4924 7.93926,-7.77852 v -0.31749 c 0,0 -12.70282,-5.2386 -19.21301,-8.41351 -4.28721,5.2386 -9.84469,8.57225 -15.71975,8.57225 -9.84468,0 -13.17917,-8.57225 -8.41562,-14.12834 0.95272,-1.26996 2.69935,-2.38118 5.3987,-3.01616 4.12842,-0.95248 10.7974,0.63498 16.99003,2.69867 1.1115,-2.06369 2.06421,-4.28613 2.69935,-6.66731 h -19.21302 v -1.90494 h 9.84469 v -3.80989 h -12.06768 v -1.90495 h 12.06768 v -4.92111 c 0,0 0,-0.79372 0.79392,-0.79372 h 4.76356 v 5.87358 h 11.9089 v 1.7462 h -11.9089 v 3.4924 h 9.6859 c -0.95271,3.80989 -2.38178,7.30229 -4.12841,10.31845 3.1757,1.11122 5.87505,2.06369 7.78048,2.69867 z"
         inkscape:connector-curvature="0"
         style="fill:#2ba6df;fill-rule:evenodd;stroke-width:0.26458332" />
      <path
         id="path14919"
         d="m 291.85661,164.33728 10.47983,22.7006 h -5.55748 l -2.85814,-6.03233 h -8.5744 l -2.85814,6.03233 h -3.65206 l 10.63861,-22.06561 c 0,0 0.31757,-0.63499 0.95271,-0.63499 0.47636,0 1.42907,0 1.42907,0 z m -5.55748,14.60458 h 6.66898 l -3.33449,-7.14354 z m 23.13728,8.27666 h -5.08113 v -21.58938 c 0,-0.63498 0.31757,-0.95247 1.1115,-0.95247 h 3.96963 z m 9.52712,-0.1478 h -5.08113 v -16.35078 c 0,-0.63498 0.31757,-0.95247 1.11149,-0.95247 h 3.96964 z m 6.21285,-16.96386 h 3.33449 v 1.58745 c 0.63515,-0.47623 1.27029,-0.95247 2.06422,-1.11121 0.79392,-0.3175 1.58785,-0.47624 2.69934,-0.47624 1.1115,0 2.06421,0.15874 2.85814,0.63498 0.95271,0.47624 1.58785,0.95247 2.22299,1.7462 0.63514,0.79373 1.1115,1.58745 1.42907,2.53993 0.31757,0.95247 0.47636,1.90494 0.47636,3.01616 0,1.42871 -0.15879,2.69867 -0.63514,3.80989 -0.47636,1.11122 -0.95272,2.22244 -1.74664,3.01616 -0.79393,0.79373 -1.58785,1.58746 -2.69935,2.06369 -1.1115,0.47624 -2.223,0.63498 -3.49328,0.63498 h -1.74664 c -0.47635,0 -0.95271,-0.15874 -1.42907,-0.31748 v 5.71483 h -5.08112 v -20.79565 c -0.15879,-2.06369 0.63514,-2.06369 1.74663,-2.06369 z m 3.33449,12.38214 c 0,0.47624 0,0.79373 0.15879,1.11122 0.15879,0.31749 0.31757,0.63498 0.63514,0.95247 0.31757,0.31749 0.63514,0.47624 0.95271,0.63498 0.31758,0.15875 0.79393,0.15875 1.27029,0.15875 0.47635,0 0.79392,-0.15875 1.27028,-0.47624 0.31757,-0.31749 0.79392,-0.63498 0.95271,-1.26996 0.15879,-0.63498 0.47635,-1.11122 0.63514,-1.90495 0.15879,-0.79372 0.31757,-1.4287 0.31757,-2.38118 0,-1.11122 0,-2.06369 -0.15878,-2.85742 -0.15879,-0.79372 -0.31758,-1.4287 -0.63514,-2.06368 -0.31758,-0.47624 -0.63515,-0.95248 -0.95272,-1.26997 -0.31757,-0.31749 -0.79392,-0.47623 -1.27028,-0.47623 -0.31757,0 -0.63514,0 -0.95271,0.15874 -0.31757,0.15875 -0.63514,0.31749 -0.79393,0.47624 -0.31757,0.15874 -0.47635,0.47623 -0.79392,0.63498 -0.31757,0.31749 -0.47636,0.47624 -0.63515,0.79373 z m 21.43847,-12.38214 c 1.27028,0 2.22299,0.15874 3.17571,0.31749 0.79392,0.15875 1.58785,0.47624 2.22299,0.95247 0.63514,0.47624 0.95271,0.95248 1.27028,1.42871 0.31757,0.63498 0.47636,1.26996 0.47636,1.90495 v 12.54089 h -5.08113 v -1.26997 c -0.31757,0.31749 -0.63514,0.47624 -0.79393,0.63498 -0.31757,0.15875 -0.63514,0.31749 -0.95271,0.47624 -0.31757,0.15875 -0.63514,0.31749 -1.1115,0.31749 -0.47635,0.15874 -0.95271,0.15874 -1.42906,0.15874 -0.79393,0 -1.42907,-0.15874 -2.06421,-0.31748 -0.63514,-0.15875 -1.1115,-0.47624 -1.58785,-0.95248 -0.47636,-0.31749 -0.79393,-0.79372 -0.95272,-1.42871 -0.15878,-0.47623 -0.31757,-1.11121 -0.31757,-1.7462 0,-0.63498 0.15879,-1.26996 0.31757,-1.7462 0.15879,-0.47623 0.63514,-0.95247 0.95272,-1.42871 0.31756,-0.47623 0.95271,-0.79372 1.42906,-1.11121 0.63514,-0.31749 1.1115,-0.63499 1.90543,-0.95247 0.63514,-0.3175 1.27028,-0.47624 2.0642,-0.79373 0.63514,-0.15875 1.42907,-0.47624 2.06421,-0.63499 l 0.63514,-0.15874 v -1.7462 c 0,-0.47624 0,-0.95247 -0.15878,-1.42871 -0.15879,-0.31749 -0.31757,-0.63498 -0.47636,-0.95247 -0.15878,-0.15875 -0.47635,-0.47624 -0.63514,-0.47624 -0.31757,-0.15874 -0.63514,-0.15874 -0.95271,-0.15874 0,0 -2.69935,0 -5.08113,2.06369 l -1.1115,-1.7462 c -0.47635,0.31749 2.38178,-1.7462 6.19263,-1.7462 z m 1.74664,8.41351 c -0.47636,0.15874 -0.95271,0.47623 -1.42907,0.79372 -0.47635,0.31749 -0.95271,0.63498 -1.42907,0.95248 -0.47635,0.31749 -0.79392,0.63498 -0.95271,1.11121 -0.31757,0.31749 -0.31757,0.79373 -0.31757,1.11122 0,0.31749 0,0.63498 0.15879,0.95247 0.15878,0.3175 0.15878,0.47624 0.31757,0.79373 0.15878,0.31749 0.31757,0.31749 0.47635,0.47624 0.15879,0.15874 0.31757,0.15874 0.63514,0.15874 0.47636,0 0.79393,-0.15874 1.27029,-0.31749 0.47635,-0.31749 0.95271,-0.63498 1.42906,-0.95247 v -5.07985 z m 12.3172,14.28708 h -3.33449 l -0.15879,-3.01616 c 0,0 4.12842,0.15875 5.3987,-1.42871 0.47636,-0.63498 0.79393,-2.38118 0.79393,-2.38118 l -8.25684,-15.87454 h 5.55749 l 5.23991,10.31845 4.60477,-10.31845 h 3.65207 l -8.41562,18.73196 c -0.31757,0.63498 -1.58786,3.96863 -5.08113,3.96863 z"
         inkscape:connector-curvature="0"
         style="fill:#3f3a39;fill-rule:evenodd;stroke-width:0.26458332" />
      <ellipse
         id="ellipse14921"
         ry="2.2489583"
         rx="2.5405293"
         cy="165.10126"
         cx="316.43985"
         style="fill:#2ba6df;fill-rule:evenodd;stroke-width:0.26458332" />
    </g>
    <text
       xml:space="preserve"
       style="font-style:normal;font-variant:normal;font-weight:bold;font-stretch:normal;font-size:4.00475836px;line-height:80.00000119%;font-family:Futura;-inkscape-font-specification:'Futura Bold';text-align:start;letter-spacing:0px;word-spacing:0px;text-anchor:start;fill:#000000;fill-opacity:1;stroke:none;stroke-width:0.10011895px;stroke-linecap:butt;stroke-linejoin:miter;stroke-opacity:1"
       x="60.362057"
       y="153.03305"
       id="text14986"><tspan
         sodipodi:role="line"
         x="60.362057"
         y="153.03305"
         style="font-style:normal;font-variant:normal;font-weight:bold;font-stretch:normal;line-height:80.00000119%;font-family:'TeX Gyre Adventor';-inkscape-font-specification:'TeX Gyre Adventor Bold';text-align:start;text-anchor:start;stroke-width:0.10011895px"
         id="tspan14988">and</tspan><tspan
         sodipodi:role="line"
         x="60.362057"
         y="156.44"
         style="font-style:normal;font-variant:normal;font-weight:bold;font-stretch:normal;line-height:80.00000119%;font-family:'TeX Gyre Adventor';-inkscape-font-specification:'TeX Gyre Adventor Bold';text-align:start;text-anchor:start;stroke-width:0.10011895px"
         id="tspan14992">more...</tspan></text>
  </g>
</svg>
